<?xml version="1.0" encoding="UTF-8"?>
<svg width="398px" height="281px" viewBox="0 0 398 281" version="1.1" xmlns="http://www.w3.org/2000/svg" xmlns:xlink="http://www.w3.org/1999/xlink"><script xmlns=""/>
    <!-- Generator: Sketch 59.1 (86144) - https://sketch.com -->
    <title>CYBERNATICS Mascot - No Outline</title>
    <desc>Created with Sketch.</desc>
    <defs>
        <filter x="-10.6%" y="-22.7%" width="121.4%" height="133.2%" filterUnits="objectBoundingBox" id="filter-1">
            <feOffset dx="0" dy="2" in="SourceAlpha" result="shadowOffsetOuter1"/>
            <feGaussianBlur stdDeviation="10" in="shadowOffsetOuter1" result="shadowBlurOuter1"/>
            <feColorMatrix values="0 0 0 0 0   0 0 0 0 0   0 0 0 0 0  0 0 0 0.3 0" type="matrix" in="shadowBlurOuter1" result="shadowMatrixOuter1"/>
            <feMerge>
                <feMergeNode in="shadowMatrixOuter1"/>
                <feMergeNode in="SourceGraphic"/>
            </feMerge>
        </filter>
    </defs>
    <g id="Page-1" stroke="none" stroke-width="1" fill="none" fill-rule="evenodd">
        <g id="ProLabs--Homepage" transform="translate(-893.000000, -328.000000)">
            <g id="Group-5-Copy-2" filter="url(#filter-1)" transform="translate(875.000000, 288.000000)">
                <g id="CYBERNATICS-Mascot---No-Outline" transform="translate(37.000000, 58.000000)">
                    <path d="M66.9457772,232.777778 C66.8792633,233.31045 66.7462356,233.909706 66.546694,234.375794 C66.014583,235.574307 64.7508195,236.573067 63.487056,236.839404 L62.954945,236.972572 L62.4893479,236.706236 C60.2278764,235.441139 58.0329187,234.109458 55.7714472,232.844362 C50.250796,229.648328 44.663631,226.252542 39.2094938,222.856757 C34.7530645,220.060227 29.9640659,216.331522 27.1704834,211.870391 C26.372317,210.538711 25.374609,208.474606 25.2415812,206.876589 C24.1773593,202.215707 23.1131374,197.554824 21.9824017,192.893942 C21.2507491,189.964245 20.5190965,187.034547 19.7209301,184.171434 C19.3883608,183.106089 19.1223053,182.107329 18.7897359,181.041984 C18.6567082,180.709064 18.4571666,180.109808 18.257625,179.710304 C17.9250556,179.510552 17.3264308,179.3108 16.9938615,179.177631 C15.9961534,178.844711 14.9984454,178.445207 14.0672512,178.045703 C11.2071549,176.84719 8.61311396,175.182589 6.35164241,172.918732 C0.697963531,167.25909 -1.09791094,158.469997 0.631449662,150.74625 C1.16356061,148.615561 2.09475478,145.219775 4.09017086,143.954678 C4.95485115,143.422006 6.08558693,143.288838 6.95026723,143.82151 C9.14522491,144.753687 11.4066965,145.619279 13.6016541,146.484871 C15.3975286,147.217296 17.3264308,147.94972 19.1223053,148.482392 C20.1865272,148.815313 21.317263,148.815313 22.3814849,148.615561 C22.7140542,148.548976 23.1131374,148.415808 23.5122206,148.216056 C25.2415812,146.418287 26.9709418,144.753687 28.6337886,142.889334 C29.6980105,141.757405 30.7622324,140.692061 31.8264543,139.493548 C32.1590236,139.094044 32.5581068,138.69454 32.9571901,138.228451 C33.0902178,138.028699 33.2897594,137.762363 33.489301,137.562611 C34.6200368,135.764842 39.3425215,133.234649 41.2049098,132.302473 C42.7347288,131.570048 44.4640894,130.77104 46.19345,130.304952 C47.5237274,129.972031 48.8540048,129.505943 50.0512544,128.906687 C50.3173099,128.773519 50.7163931,128.573767 50.9824486,128.374015 C51.780615,126.97575 52.5787814,125.577485 53.3769479,124.179221 C54.1086004,122.980708 54.9067669,121.582443 55.837961,120.517099 C57.36778,118.71933 63.6200837,116.189137 66.3471524,115.190376 L68.9411933,112.393847 C68.3425684,107.666381 68.6086239,102.805746 70.4710122,98.344616 C71.8678035,94.7490782 74.129275,91.6862127 77.0558853,89.1560195 C79.250843,87.2250826 81.77837,85.6936498 84.4389248,84.4951372 C85.3036051,84.095633 86.2347992,83.7627129 87.0994795,83.4297927 C87.365535,83.2966247 87.5650766,83.2966247 87.8311321,83.1634566 C91.0237978,75.6394609 96.2783935,68.3818014 104.12703,65.3189359 C104.99171,64.9860157 105.789877,64.4533435 106.321988,63.7875031 C106.455015,63.587751 106.721071,63.1882468 106.854099,62.9219107 L106.854099,62.8553267 L106.920613,62.7221586 C108.051348,59.5927091 109.315112,56.3966755 110.379334,53.267226 C110.911445,51.6026252 112.04218,50.2709445 113.438972,49.2056 C114.037597,48.7395118 114.769249,48.2734236 115.500902,48.0070874 L134.324327,38.4855708 C136.253229,32.0935037 139.512408,26.1009407 143.968838,21.0405543 C151.75096,8.38958809 164.98722,0 180.019355,0 C195.051489,0 208.287749,8.38958809 216.069872,21.0405543 C220.459787,26.1675248 223.718967,32.0269196 225.714383,38.4855708 L244.471294,48.0736715 C245.202946,48.4065916 245.934599,48.8060958 246.533224,49.272184 C247.930015,50.2709445 249.060751,51.6692092 249.592862,53.33381 C250.657084,56.5298436 251.854333,59.6592931 253.051583,62.7887426 L253.118097,62.9219107 L253.118097,62.9884947 C253.251125,63.3214149 253.450666,63.6543351 253.650208,63.8540872 C254.182319,64.5865115 254.980485,65.0525997 255.845165,65.3855199 C263.627288,68.4483854 268.948398,75.7060449 272.141063,83.2300406 C272.407119,83.2966247 272.606661,83.3632087 272.872716,83.4963767 C273.80391,83.8292969 274.66859,84.1622171 275.533271,84.5617213 C278.193826,85.7602339 280.721353,87.2916666 282.91631,89.2226035 C285.776407,91.7527968 288.037878,94.8156623 289.501183,98.4112 C291.297058,102.87233 291.563113,107.666381 291.031002,112.460431 L293.625043,115.25696 C296.352112,116.255721 302.604415,118.785914 304.134234,120.583683 C305.065429,121.649027 305.930109,122.980708 306.595248,124.245805 C307.459928,125.577485 308.258094,127.042334 308.989747,128.440599 C309.255802,128.640351 309.654886,128.840103 309.920941,128.973271 C311.118191,129.572527 312.514982,130.038615 313.778746,130.371536 C315.508106,130.837624 317.237467,131.503464 318.767286,132.369057 C320.629674,133.301233 325.352159,135.831426 326.482895,137.629195 C326.615922,137.828947 326.815464,138.095283 327.015005,138.295035 C327.347575,138.69454 327.746658,139.160628 328.145741,139.560132 C329.209963,140.692061 330.274185,141.823989 331.338407,142.955918 C333.067768,144.753687 334.797128,146.484871 336.459975,148.28264 C336.792544,148.415808 337.191627,148.615561 337.590711,148.682145 C338.721446,148.948481 339.785668,148.815313 340.84989,148.548976 C342.645765,148.016304 344.641181,147.28388 346.370541,146.551456 C348.565499,145.685863 350.826971,144.753687 353.021928,143.888094 C353.953122,143.355422 355.017344,143.48859 355.882025,144.021262 C357.877441,145.286359 358.808635,148.682145 359.340746,150.812834 C361.13662,158.469997 359.274232,167.325674 353.620553,172.985316 C351.425595,175.182589 348.831555,176.84719 345.904944,178.112287 C344.97375,178.511791 343.909528,178.844711 342.978334,179.244215 C342.645765,179.377384 342.04714,179.577136 341.714571,179.776888 C341.515029,180.109808 341.315487,180.775648 341.18246,181.108568 C340.84989,182.107329 340.517321,183.172673 340.251265,184.238018 C339.453099,187.101131 338.721446,190.030829 337.989794,192.960526 C336.859058,197.621408 335.794836,202.282291 334.730614,206.943173 C334.597587,208.54119 333.599879,210.671879 332.801712,211.936975 C330.00813,216.398106 325.152617,220.193395 320.762702,222.923341 C315.308564,226.38571 309.787913,229.714912 304.200748,232.910946 C302.005791,234.242626 299.744319,235.507723 297.482848,236.77282 L297.01725,237.039156 L296.48514,236.905988 C295.154862,236.639651 293.957613,235.707475 293.425502,234.442378 C293.22596,233.97629 293.092932,233.443618 293.026418,232.844362 C292.095224,233.177282 291.16403,233.510202 290.232836,233.776538 C289.301642,234.109458 288.436961,234.442378 287.505767,234.775299 C287.173198,234.908467 286.508059,235.174803 286.108976,235.374555 C285.84292,235.707475 285.576865,235.973811 285.377323,236.306731 C284.911726,236.905988 284.446129,237.43866 283.980532,238.1045 C283.514935,238.637172 283.049338,239.236429 282.583741,239.769101 C282.251172,240.168605 281.785574,240.701277 281.319977,240.967614 C281.053922,241.167366 280.787866,241.300534 280.521811,241.500286 C278.79245,242.365878 276.863548,241.56687 275.333729,240.767861 C274.202993,240.235189 273.005744,239.502765 271.941522,238.770341 C270.345189,237.77158 268.748856,236.706236 267.152523,235.574307 L267.086009,235.507723 L267.019496,235.507723 C266.952982,235.441139 266.886468,235.374555 266.819954,235.374555 C266.819954,235.374555 266.75344,235.374555 266.75344,235.441139 C265.955274,236.106979 265.290135,237.172324 264.358941,237.571828 C263.760316,237.838164 263.361233,237.971332 262.62958,237.904748 C261.698386,237.77158 260.767192,237.172324 260.035539,236.639651 C258.971317,235.840643 257.774068,235.041635 256.643332,234.242626 C254.647916,232.910946 252.6525,231.446097 250.657084,230.114416 C247.464418,227.917143 244.205238,225.71987 241.012573,223.522597 L240.879545,223.456013 L240.746517,223.322845 C239.216698,221.791412 238.618073,219.394387 240.014865,217.530034 C240.413948,216.997362 240.813031,216.398106 241.1456,215.798849 C241.677711,214.933257 242.276336,214.134249 243.007989,213.401824 C245.003405,211.137967 247.33139,209.53995 250.124973,208.274854 C252.918555,207.009757 255.911679,206.876589 258.904803,207.609013 C259.902512,207.875349 260.90022,208.20827 261.897928,208.607774 C262.230497,208.740942 262.762608,208.940694 263.095177,209.140446 C263.427747,208.87411 263.893344,208.408022 264.159399,208.20827 L264.491968,207.875349 C263.49426,206.543669 262.895636,204.879068 262.895636,203.081299 C262.895636,203.014715 262.895636,202.948131 262.895636,202.881547 L257.973609,198.220665 L257.973609,198.220665 C253.583694,198.220665 249.991945,194.625127 249.991945,190.230581 C249.991945,188.432812 250.59057,186.768211 251.588278,185.369946 L250.657084,179.244215 C248.661668,177.779367 247.264876,175.382342 247.264876,172.71898 C247.264876,168.92369 249.925431,165.727657 253.450666,164.928648 L256.44379,159.868262 C256.310763,159.33559 256.310763,158.869502 256.310763,158.336829 C256.310763,154.741292 258.705262,151.74501 261.897928,150.74625 L264.092885,147.084128 C264.092885,146.551456 264.026371,146.151951 264.026371,145.619279 C263.959858,144.15443 263.893344,142.622998 263.893344,141.158149 C263.893344,139.959636 263.893344,138.761124 264.026371,137.496027 C264.159399,136.430683 264.358941,135.365338 264.824538,134.433162 C265.157107,133.767321 265.55619,133.301233 265.955274,132.835145 C266.154815,132.568809 266.287843,132.369057 266.487385,132.10272 C266.154815,131.570048 264.69151,130.571288 264.292427,130.238368 C263.627288,129.838863 262.962149,129.439359 262.297011,129.106439 C262.097469,128.973271 261.7649,128.840103 261.432331,128.706935 C261.166275,128.840103 260.90022,129.106439 260.767192,129.239607 C260.235081,129.705695 259.636456,130.171784 259.104345,130.637872 C258.173151,131.503464 257.241957,132.435641 256.310763,133.234649 C255.845165,133.567569 255.180027,133.967073 254.581402,134.166825 C253.849749,134.499746 253.051583,134.89925 252.253417,135.23217 C251.654792,135.56509 249.925431,136.297515 249.39332,136.763603 C249.260292,137.096523 249.060751,137.629195 248.927723,137.895531 C248.595154,138.827708 248.395612,139.6933 248.129557,140.558893 C247.397904,143.022502 246.799279,145.552695 246.134141,148.082888 C245.469002,150.679666 244.803863,153.209859 244.138725,155.806636 C243.872669,156.738812 243.606614,157.670989 243.340558,158.603165 C243.20753,159.135838 243.007989,159.868262 242.675419,160.33435 C242.143308,161.266527 240.613489,162.198703 239.682295,162.731375 C238.21899,163.663552 236.689171,164.529144 235.225866,165.394737 C233.762561,166.260329 230.370354,168.191266 229.439159,169.522947 C226.845119,173.0519 225.115758,177.779367 224.583647,182.107329 C224.450619,183.638762 224.251078,185.236778 223.851994,186.701627 C223.585939,187.633804 223.25337,188.499396 222.588231,189.298404 C222.189148,189.831077 221.657037,190.230581 221.19144,190.630085 C220.526301,191.162757 219.661621,191.69543 218.929968,192.094934 C217.93226,192.627606 216.934552,193.160278 215.87033,193.626366 C214.806108,194.159039 213.675372,194.691711 212.611151,195.157799 C211.946012,195.490719 211.214359,195.82364 210.549221,196.223144 C210.216651,196.422896 209.817568,196.755816 209.484999,197.022152 C208.753346,197.554824 208.088207,198.154081 207.423069,198.753337 C205.494167,200.351354 203.565264,201.949371 201.503334,203.414219 C199.042321,205.278572 195.251031,207.941933 192.257907,208.740942 C191.526254,208.940694 190.794601,209.073862 190.062949,209.273614 C186.803769,209.939454 183.345048,210.472127 179.952841,210.805047 L179.819813,210.805047 L179.686785,210.805047 C176.361092,210.472127 172.902371,209.939454 169.576677,209.273614 C168.845025,209.140446 168.113372,208.940694 167.38172,208.740942 C164.388595,208.008518 160.597305,205.278572 158.136292,203.414219 C156.140876,201.882787 154.211973,200.351354 152.216557,198.753337 C151.484905,198.220665 150.819766,197.621408 150.154627,197.022152 C149.822058,196.755816 149.422975,196.422896 149.090406,196.223144 C148.425267,195.890224 147.760128,195.490719 147.028476,195.157799 C145.89774,194.625127 144.833518,194.092455 143.769296,193.626366 C142.771588,193.093694 141.707366,192.627606 140.709658,192.094934 C139.978005,191.69543 139.113325,191.162757 138.448186,190.630085 C137.916076,190.230581 137.450478,189.831077 137.051395,189.298404 C136.386257,188.56598 136.053687,187.700388 135.787632,186.701627 C135.388549,185.236778 135.255521,183.638762 135.055979,182.107329 C134.523868,177.712783 132.861021,173.0519 130.200467,169.522947 C129.269273,168.191266 125.877065,166.260329 124.41376,165.394737 C122.883941,164.46256 121.420636,163.596968 119.957331,162.731375 C119.026137,162.198703 117.562832,161.199943 116.964207,160.33435 C116.698151,159.868262 116.432096,159.135838 116.299068,158.603165 C115.966499,157.670989 115.766957,156.738812 115.500902,155.806636 C114.769249,153.209859 114.170624,150.679666 113.505486,148.082888 C112.840347,145.552695 112.175208,143.089086 111.510069,140.558893 C111.244014,139.626716 110.977959,138.761124 110.711903,137.895531 C110.578875,137.562611 110.379334,137.029939 110.246306,136.763603 C109.714195,136.23093 107.984834,135.498506 107.38621,135.23217 C106.654557,134.89925 105.856391,134.499746 105.058224,134.166825 C104.526113,133.900489 103.794461,133.634153 103.328864,133.234649 C102.397669,132.435641 101.399961,131.503464 100.535281,130.637872 C100.00317,130.105199 99.4710592,129.705695 98.8724344,129.239607 C98.7394066,129.106439 98.4733511,128.906687 98.2072957,128.706935 C97.8747263,128.840103 97.6086708,129.039855 97.3426154,129.106439 C96.6109628,129.439359 96.012338,129.838863 95.3471993,130.238368 C94.8816022,130.571288 93.484811,131.503464 93.1522416,132.10272 C93.2852694,132.369057 93.484811,132.635393 93.6843526,132.835145 C94.1499497,133.367817 94.482519,133.833905 94.8150883,134.433162 C95.3471993,135.365338 95.5467409,136.430683 95.6132548,137.496027 C95.7462825,138.69454 95.7462825,139.893052 95.7462825,141.158149 C95.7462825,142.622998 95.6797686,144.15443 95.6132548,145.619279 C95.6132548,145.819031 95.6132548,147.28388 95.5467409,147.417048 L102.996294,151.07917 L116.033013,164.728896 L90.2256314,204.08006 C90.6247146,204.546148 93.0192139,205.478324 93.4182971,205.944413 C94.0834358,206.676837 94.7485745,207.409261 95.480227,208.141686 C95.6797686,208.341438 96.2118796,208.87411 96.5444489,209.073862 C96.9435322,208.940694 97.4756431,208.740942 97.7416986,208.54119 C98.7394066,208.141686 99.7371147,207.808765 100.734823,207.542429 C103.727947,206.810005 106.654557,206.943173 109.514653,208.20827 C112.241722,209.406782 114.636221,211.071383 116.631637,213.33524 C117.296776,214.067664 117.895401,214.866673 118.494026,215.732265 C118.893109,216.264938 119.225678,216.864194 119.624762,217.46345 C121.021553,219.327803 120.422928,221.724828 118.893109,223.256261 L118.760081,223.389429 L118.627053,223.456013 C115.434388,225.653286 112.175208,227.850559 108.982542,230.047832 C106.987126,231.379513 104.925196,232.777778 102.996294,234.176042 C101.865558,234.908467 100.668309,235.707475 99.6040869,236.573067 C98.8724344,237.10574 97.9412402,237.704996 97.010046,237.838164 C96.3449073,237.971332 95.8793102,237.77158 95.2806854,237.505244 C94.3494913,237.10574 93.6843526,236.040395 92.8861861,235.374555 L92.8196723,235.307971 C92.7531584,235.307971 92.6866445,235.374555 92.6201307,235.441139 L92.5536168,235.441139 L92.4871029,235.507723 C90.9572839,236.639651 89.2944372,237.704996 87.6981043,238.703756 C86.5673686,239.436181 85.5031467,240.035437 84.305897,240.701277 C82.776078,241.500286 80.8471758,242.299294 79.1178152,241.433702 C78.7852459,241.300534 78.5857043,241.100782 78.3196488,240.90103 C77.8540517,240.568109 77.3884546,240.102021 77.0558853,239.702517 C76.5237743,239.169845 76.1246911,238.570588 75.659094,238.037916 C75.1269831,237.43866 74.7278999,236.905988 74.2623028,236.240147 C73.9962473,235.907227 73.7301918,235.640891 73.5306502,235.307971 C73.1980809,235.108219 72.5329422,234.841883 72.133859,234.708715 C71.2026648,234.375794 70.3379845,233.97629 69.4067903,233.709954 C68.4755962,233.377034 67.544402,233.044114 66.6132078,232.777778 L66.9457772,232.777778 Z M275.86584,97.1461034 C275.932354,97.6787757 275.932354,98.2114479 275.932354,98.6775362 C275.932354,99.1436244 275.932354,99.7428807 275.86584,100.275553 L280.255755,103.804507 C279.524103,101.141145 278.127312,98.6775362 275.86584,97.1461034 Z M84.1063554,97.1461034 C81.77837,98.6775362 80.4480926,101.207729 79.7164401,103.871091 L84.1063554,100.342137 C84.0398415,99.8094647 84.0398415,99.2102084 84.0398415,98.7441202 C84.0398415,98.278032 84.0398415,97.6121916 84.1063554,97.1461034 Z" id="Shape" fill="#111927"/>
                    <path d="M235.183132,113.303571 C235.183132,113.303571 236.04352,119.023145 234.653663,122.880532 C233.660908,125.673812 231.410663,129.198666 228.564765,132.923039 C227.439642,133.122559 226.182153,133.122559 225.520316,132.390986 C224.858479,131.792426 225.189397,129.597706 225.851234,127.269972 C229.491336,122.880532 232.601969,118.225065 235.183132,113.303571 L235.183132,113.303571 Z M122.406154,113.303571 C122.406154,113.303571 121.545766,119.023145 122.935623,122.880532 C123.928378,125.673812 126.178623,129.198666 129.024521,132.923039 C130.149643,133.122559 131.407133,133.122559 132.06897,132.390986 C132.730807,131.792426 132.399888,129.597706 131.738052,127.269972 C128.09795,122.880532 124.921133,118.225065 122.406154,113.303571 L122.406154,113.303571 Z M138.422603,143.364587 C142.261256,147.155467 146.166092,150.347787 149.078174,152.010454 C149.078174,152.010454 153.777215,158.062561 157.4835,171.895949 C161.189786,185.729336 161.189786,194.24219 161.189786,194.24219 C161.189786,194.24219 166.285929,198.099577 168.933276,199.097177 C171.448255,200.02827 178.331357,200.82635 178.794643,200.892857 C179.257929,200.82635 186.141031,200.094777 188.65601,199.097177 C191.237173,198.099577 196.3995,194.24219 196.3995,194.24219 C196.3995,194.24219 196.3995,185.795843 200.105785,171.895949 C203.812071,157.996054 208.511112,152.010454 208.511112,152.010454 C211.489377,150.347787 215.32803,147.155467 219.166683,143.364587 C219.894704,141.169867 220.424173,139.174666 220.291806,138.044053 C220.093255,136.048853 218.173928,136.248373 216.850255,136.580906 C208.246377,144.229173 198.120275,150.148267 187.133786,152.875041 L187.133786,152.875041 C187.133786,152.875041 182.898031,155.468801 182.236194,160.390295 C181.640541,165.311788 181.044888,186.06187 180.713969,189.387203 C180.449235,192.513017 178.92701,192.84555 178.662276,192.912057 C178.463724,192.84555 176.875316,192.513017 176.610582,189.387203 C176.279663,186.06187 175.68401,165.378295 175.088357,160.390295 C174.492704,155.468801 170.190765,152.875041 170.190765,152.875041 L170.190765,152.875041 C159.336643,150.148267 149.144357,144.29568 140.474296,136.580906 C139.150623,136.248373 137.29748,136.048853 137.032745,138.044053 C137.165113,139.174666 137.694582,141.169867 138.422603,143.364587 L138.422603,143.364587 Z" id="Shape" fill="#A8B3CC"/>
                    <path d="M179.196429,145.446429 C166.458887,143.908715 154.252076,137.95843 144.367213,129.467574 C136.40625,122.648147 129.971138,114.090434 126.123339,104.797293 C126.056998,104.663579 124.796512,100.91958 126.65407,98.7132942 C128.577969,96.5070089 130.767234,101.588151 130.767234,101.588151 L130.767234,101.588151 C130.833576,101.788722 130.899917,101.922437 130.966258,102.123008 C134.416009,110.814435 140.386732,118.770433 147.883306,125.255575 C156.83939,132.944145 167.918397,138.359573 179.26277,139.897287 C190.607143,138.359573 201.68615,132.944145 210.642234,125.255575 C218.138808,118.837291 224.109531,110.814435 227.559282,102.123008 C227.625623,101.922437 227.691964,101.788722 227.758306,101.588151 L227.758306,101.588151 C227.758306,101.588151 229.947571,96.4401518 231.87147,98.7132942 C233.729028,100.91958 232.402201,104.663579 232.402201,104.797293 C228.554402,114.090434 222.11929,122.58129 214.158326,129.467574 C204.207122,137.95843 191.867629,143.908715 179.196429,145.446429 Z M236.25,86.4115822 C236.25,86.1441537 236.25,85.8767252 236.25,85.6761538 C236.25,85.4755824 236.25,85.275011 236.25,85.0744396 C236.183659,81.3972974 235.719269,77.7870124 234.657807,74.1767273 C234.657807,74.1767273 232.468542,68.4938712 230.013912,67.5578714 C227.49294,66.6218715 230.743667,77.2521553 230.743667,84.0715826 L230.743667,84.0715826 C230.810008,85.3418681 230.677326,86.6121536 230.942691,87.8824391 C231.075374,88.5510104 231.407081,89.4201531 231.87147,90.2224387 C232.932932,91.7601527 236.050976,89.9550101 236.25,86.4115822 L236.25,86.4115822 Z M122.142857,86.4115822 C122.142857,86.1441537 122.142857,85.8767252 122.142857,85.6761538 C122.142857,85.4755824 122.142857,85.275011 122.142857,85.0744396 C122.209199,81.3972974 122.673588,77.7870124 123.73505,74.1767273 C123.73505,74.1767273 125.924315,68.4938712 128.378945,67.5578714 C130.899917,66.6218715 127.64919,77.2521553 127.64919,84.0715826 L127.64919,84.0715826 C127.582849,85.3418681 127.715532,86.6121536 127.450166,87.8824391 C127.317483,88.5510104 126.985777,89.4201531 126.521387,90.2224387 C125.526267,91.7601527 122.408223,89.9550101 122.142857,86.4115822 L122.142857,86.4115822 Z" id="Shape" fill="#CED8F0" fill-rule="nonzero"/>
                    <path d="M119.193848,139.945134 C119.193848,139.945134 121.737058,154.003507 122.584794,155.0546 C123.497742,156.04 130.736109,160.507147 130.736109,160.507147 C130.736109,160.507147 132.301162,161.426854 132.562004,159.39036 C132.822846,157.353867 131.127372,156.696934 131.127372,156.696934 C131.127372,156.696934 125.714899,152.886721 125.128005,152.361174 C124.54111,151.835627 122.976058,142.113014 122.780426,141.718854 C122.584794,141.390388 122.584794,140.207908 121.019742,138.894041 C119.5199,137.514481 118.867795,138.565574 118.933005,139.156814 C119.193848,139.682361 119.259058,139.945134 119.193848,139.945134 L119.193848,139.945134 Z" id="Path" fill="#606C80"/>
                    <path d="M131.109537,102.137069 C131.109537,102.137069 128.986418,97.2223761 127.120648,99.3925004 C125.319214,101.498798 126.605952,105.07312 126.605952,105.200774 C127.184985,106.541145 127.828354,107.881516 128.53606,109.285714 C128.986418,108.519788 129.565451,107.690035 130.466167,106.924108 C131.23821,106.222009 131.945917,105.775219 132.589286,105.456083 C132.138927,104.562503 131.752906,103.605095 131.366884,102.711514 C131.23821,102.456205 131.173874,102.328551 131.109537,102.137069 L131.109537,102.137069 Z" id="Path" fill="#FEFEFF"/>
                    <path d="M137.970779,115.714286 C137.211851,116.225344 136.383929,116.736402 135.487013,117.183577 C134.521104,117.694635 133.486201,117.886282 132.589286,117.950164 C135.900974,122.038628 139.695617,125.871563 143.973214,129.257322 C144.732143,129.832262 145.491071,130.407203 146.25,130.982143 C137.832792,122.677451 142.662338,120.95263 142.662338,120.95263 C141.006494,119.355574 139.419643,117.566871 137.970779,115.714286 L137.970779,115.714286 Z" id="Path" fill="#68748E"/>
                    <path d="M150.858236,126.964286 L149.464286,132.99719 C153.715835,135.97897 158.315871,138.544688 163.125,140.625 C162.84621,140.139594 162.637117,139.654188 162.428025,139.030094 C161.521957,136.672408 161.243167,134.730783 161.243167,133.482596 C157.618896,131.610315 154.13402,129.391316 150.858236,126.964286 L150.858236,126.964286 Z" id="Path" fill="#FEFEFF"/>
                    <path d="M179.260289,139.281212 C176.00343,138.761255 172.74657,137.869898 169.553571,136.607143 C174.91781,141.509604 172.299551,143.960834 172.299551,143.960834 C174.59851,144.629352 176.833609,145.14931 179.196429,145.446429 C181.559248,145.14931 183.794347,144.629352 186.093307,143.960834 C186.093307,143.960834 183.538907,141.509604 188.839286,136.607143 C185.710147,137.869898 182.453288,138.761255 179.132569,139.281212 L179.260289,139.281212 Z" id="Path" fill="#68748E"/>
                    <path d="M141.028196,136.202582 C141.028196,136.202582 140.628529,136.001472 140.095639,135.867399 C138.896637,135.666289 137.564413,135.867399 137.43119,137.543313 C137.297968,138.682934 137.830858,140.694031 138.563581,142.906237 C142.427032,146.727321 146.357094,149.878039 149.287988,151.620989 C149.287988,151.620989 154.017385,157.721316 157.747614,171.664919 C161.477843,185.608523 161.477843,194.189202 161.477843,194.189202 C161.477843,194.189202 166.606907,198.077322 169.271356,199.08287 C171.802583,200.021382 178.73015,200.825821 179.196429,200.892857 C179.662707,200.825821 186.590275,200.088418 189.121501,199.08287 C191.719339,198.077322 196.915015,194.189202 196.915015,194.189202 C196.915015,194.189202 196.915015,185.675559 200.645243,171.664919 C204.375472,157.721316 209.104869,151.620989 209.104869,151.620989 C212.102374,149.945075 215.965825,146.727321 219.829276,142.906237 C220.562,140.694031 221.094889,138.682934 220.961667,137.543313 C220.828444,135.867399 219.49622,135.733326 218.297218,135.867399 C217.764328,136.001472 217.364661,136.202582 217.364661,136.202582 C216.165659,137.275167 214.900045,138.347752 213.634432,139.3533 C213.434598,140.492921 212.701875,141.967725 210.770149,143.308457 C207.639422,145.520663 198.580295,150.615441 197.647738,151.889136 C196.715181,153.16283 194.383788,158.458718 192.385451,170.860481 C190.453726,183.262243 190.387114,192.379215 190.387114,192.379215 C190.387114,192.379215 187.98911,194.725494 186.057385,195.19475 C184.19227,195.664006 179.729318,196.066225 179.329651,196.066225 C178.996595,195.999189 174.467032,195.664006 172.601917,195.19475 C170.670192,194.658458 168.272188,192.379215 168.272188,192.379215 C168.272188,192.379215 168.138965,183.195207 166.273851,170.860481 C164.342125,158.458718 162.010732,153.16283 161.011564,151.889136 C160.079007,150.615441 151.01988,145.520663 147.889153,143.308457 C145.957427,141.967725 145.224704,140.492921 145.02487,139.3533 C143.759257,138.347752 142.493643,137.275167 141.294641,136.202582 L141.028196,136.202582 L141.028196,136.202582 Z" id="Path" fill="#68748E"/>
                    <path d="M125.666838,128.571429 C125.99814,126.77032 126.329443,124.830665 126.064401,123.930111 C125.733098,123.029557 123.877806,119.565887 122.155034,116.517857 C122.088773,118.526786 122.287554,120.951355 122.883899,122.960283 C123.413982,124.622845 124.407889,126.493227 125.666838,128.571429 L125.666838,128.571429 Z" id="Path" fill="#68748E"/>
                    <path d="M116.517857,70.7142857 C116.517857,70.7142857 112.453765,79.968428 112.182825,94.2519954 C111.844151,108.468504 114.147137,116.314407 114.147137,116.314407 C114.147137,116.314407 109.812105,112.022631 108.863817,100.622601 C107.915528,89.1555112 111.031332,76.4143009 111.031332,76.4143009 C111.031332,76.4143009 106.96724,79.901369 105.680278,85.3331481 C104.393315,90.7649273 104.32558,94.5202314 104.32558,94.5202314 C104.32558,94.5202314 97.2134184,98.1414175 97.5520928,106.72497 C97.8907672,115.308522 99.7196087,118.125 99.7196087,118.125 C99.7196087,118.125 88.2724152,106.590852 94.0298794,88.7531572 C99.7196087,70.9154627 116.517857,70.8484037 116.517857,70.8484037 L116.517857,70.7142857 L116.517857,70.7142857 Z" id="Path" fill="#A8B3CC"/>
                    <path d="M94.3619002,110.089286 C92.5867748,105.30305 91.4456228,98.721976 93.5377348,90.8113921 C97.0245882,85.4933525 102.857143,82.7678571 102.857143,82.7678571 C102.857143,82.7678571 102.286567,84.0308916 101.652594,87.2217153 C101.082018,90.4125391 100.891826,93.1380344 100.891826,93.1380344 C100.891826,93.1380344 96.6442042,94.7334463 94.9324762,101.380996 C94.1083108,104.771246 94.1083108,107.895594 94.3619002,110.089286 L94.3619002,110.089286 Z" id="Path" fill="#68748E"/>
                    <path d="M127.767857,83.5714286 C125.870267,84.2900054 123.430508,85.2241552 122.685026,85.6553013 C122.549484,85.7990166 122.34617,85.8708743 122.142857,86.0145897 C122.142857,86.0864474 122.142857,86.158305 122.142857,86.158305 C122.142857,86.4457358 122.142857,86.7331665 122.142857,86.9487395 C122.34617,90.7571965 125.531411,92.6973539 126.547978,90.9727696 C127.090146,90.1104774 127.361231,89.1763276 127.496773,88.4577508 C127.835628,87.0924549 127.632315,85.727159 127.700086,84.361863 L127.700086,84.361863 C127.767857,84.0744323 127.767857,83.8588593 127.767857,83.5714286 L127.767857,83.5714286 Z" id="Path" fill="#68748E"/>
                    <path d="M126.425536,76.0192143 C127.012849,75.8860053 128.383246,75.6195872 129.557872,75.4197736 C130.210442,71.1570837 130.66724,67.8268573 129.231587,68.3596935 C126.751821,69.2921569 124.663598,74.9535419 124.663598,74.9535419 C124.337313,76.2190279 124.011028,77.484514 123.75,78.75 C124.924626,77.2847004 126.033994,76.0858189 126.425536,76.0192143 L126.425536,76.0192143 Z" id="Path" fill="#FEFEFF"/>
                    <path d="M114.107143,64.2857143 C114.107143,64.2857143 116.40051,57.6140456 117.07503,56.1385804 C117.74955,54.7272659 132.588986,49.0178571 132.588986,49.0178571 C132.588986,49.0178571 132.656438,52.4819928 130.767782,53.3159514 C128.946579,54.2140606 120.987245,57.6140456 120.245273,58.1272509 C119.435849,58.6404562 118.356618,62.9385504 118.356618,62.9385504 C118.356618,62.9385504 118.019358,63.8366597 117.07503,64.0291116 C116.06325,64.2857143 114.107143,64.2857143 114.107143,64.2857143 L114.107143,64.2857143 Z" id="Path" fill="#68748E"/>
                    <path d="M148.327083,42.8760277 C148.195967,46.2290596 148.064851,52.8010021 147.999293,58.5011562 L147.999293,58.5011562 L147.999293,58.5011562 C147.868177,63.1954008 147.868177,67.3531603 147.868177,68.5602518 C147.868177,68.9626156 147.868177,69.2979188 147.737062,69.7002826 L147.737062,69.7002826 C147.737062,75.8698613 145.376976,78.3511048 145.376976,78.3511048 L145.376976,54.6786999 C144.655839,53.0692446 143.67247,51.9292138 142.426869,51.9292138 C141.640174,51.9292138 140.853479,52.4656989 140.132342,53.5386691 C141.902406,54.8798818 143.148007,60.1106115 143.148007,66.3472508 C143.148007,73.5897996 141.377943,79.4911357 139.214531,79.4911357 C139.148973,79.4911357 139.083415,79.4911357 139.017857,79.4911357 C139.935668,81.838258 141.050153,83.1794707 142.361311,83.1794707 C142.426869,83.1794707 142.492427,83.1794707 142.557985,83.1794707 L142.557985,83.2465313 C142.557985,83.2465313 144.524723,86.7336845 145.114744,91.3608684 C145.770324,95.9880524 145.704766,99.6093268 145.704766,99.6093268 C145.704766,99.6093268 152.653906,110.808453 160.979763,116.77685 C169.108946,122.544065 179.073751,122.946429 179.598214,122.946429 C180.122678,122.946429 190.153041,122.544065 198.216666,116.77685 C206.542523,110.808453 213.491663,99.6093268 213.491663,99.6093268 C213.491663,99.6093268 213.426105,95.9880524 214.081684,91.3608684 C214.737263,86.7336845 216.638443,83.2465313 216.638443,83.2465313 L216.638443,83.1794707 C216.704001,83.1794707 216.769559,83.1794707 216.835117,83.1794707 C218.080718,83.1794707 219.26076,81.838258 220.178571,79.4911357 C220.113014,79.4911357 220.047456,79.4911357 219.981898,79.4911357 C217.818486,79.4911357 216.048422,73.5897996 216.048422,66.3472508 C216.048422,60.1106115 217.359581,54.8128212 219.064087,53.5386691 C218.342949,52.5327595 217.621812,51.9292138 216.769559,51.9292138 C215.523959,51.9292138 214.606148,53.0692446 213.819452,54.6786999 L213.819452,78.3511048 C213.819452,78.3511048 211.459367,75.9369219 211.459367,69.7002826 L211.459367,69.7002826 C211.393809,69.3649794 211.328251,68.9626156 211.328251,68.5602518 C211.328251,67.3531603 211.262693,63.1954008 211.197135,58.5011562 L211.197135,58.5011562 L211.197135,58.5011562 C211.06602,52.8010021 210.934904,46.2290596 210.869346,42.8760277 C210.73823,37.3099949 209.16484,33.956963 206.345849,29.7321429 L206.345849,100.011691 C206.345849,100.011691 206.018059,102.358813 198.216666,109.802544 C190.546388,117.112153 179.991562,117.84982 179.401541,117.916881 C178.811519,117.84982 168.191135,117.112153 160.586415,109.802544 C152.719464,102.291752 152.457232,100.011691 152.457232,100.011691 L152.457232,29.7321429 C149.638241,34.0240236 148.064851,37.3770555 147.933735,42.8760277 L148.327083,42.8760277 Z" id="Path" fill="#A8B3CC"/>
                    <path d="M137.777778,58.6607143 C139.375,58.6607143 140.625,62.782631 140.625,67.9017857 C140.625,73.0209404 139.375,77.1428571 137.777778,77.1428571 C137.222222,77.1428571 136.805556,76.6774794 136.388889,75.8796891 C139.722222,77.7411999 139.097222,68.2341984 139.097222,68.2341984 C139.097222,68.2341984 137.291667,69.5638489 135.763889,67.6358556 C135.416667,67.2369604 135.208333,66.8380653 135,66.3726876 C135.138889,62.0513232 136.319444,58.6607143 137.777778,58.6607143 L137.777778,58.6607143 Z" id="Path" fill="#9FEF00"/>
                    <path d="M132.946515,89.1964286 C132.946515,89.1964286 131.796645,91.8080357 133.622909,95.5025044 C135.449172,99.196973 137.410714,99.6428571 137.410714,99.6428571 C137.410714,99.6428571 137.275436,97.2860409 135.516811,93.4641768 C133.758187,89.7060105 132.946515,89.1964286 132.946515,89.1964286 L132.946515,89.1964286 Z" id="Path" fill="#0086FF"/>
                    <path d="M137.489816,86.7857143 C137.489816,86.7857143 137.106964,88.487395 138.025808,90.3151261 C138.944651,92.2058824 140.552627,93.2142857 140.552627,93.2142857 C140.552627,93.2142857 140.935479,91.0714286 139.940065,89.1806723 C139.021222,87.3529412 137.489816,86.7857143 137.489816,86.7857143 Z" id="Path" fill="#0086FF"/>
                    <path d="M147.053571,67.5385477 L147.053571,99.5533079 C147.053571,99.5533079 151.054962,108.520098 163.792722,116.424157 C168.994529,119.612348 174.729856,120.940762 179.598214,121.339286 C184.533263,120.940762 190.201899,119.612348 195.403707,116.424157 C208.141467,108.520098 212.142857,99.5533079 212.142857,99.5533079 L212.142857,67.5385477 L212.142857,67.5385477 C212.142857,65.6123484 212.076167,62.8891012 212.009477,59.8337507 L212.009477,59.8337507 C211.876098,54.1879942 211.742718,47.6787691 211.676028,44.3577359 C211.542649,38.8448208 209.942092,35.5237876 207.074429,31.3392857 L207.074429,100.948142 C207.074429,100.948142 206.74098,103.272865 198.804889,110.645559 C191.002177,117.885411 180.265113,118.616038 179.664904,118.682459 C179.064696,118.616038 168.260941,117.885411 160.524919,110.645559 C152.522138,103.206444 152.255379,100.948142 152.255379,100.948142 L152.255379,31.3392857 C149.387716,35.5902082 147.78716,38.9112414 147.65378,44.3577359 C147.5204,47.6787691 147.387021,54.1879942 147.320331,59.8337507 L147.320331,59.8337507 C147.253641,62.8226805 147.186951,65.6123484 147.186951,67.5385477 L147.186951,67.5385477 L147.053571,67.5385477 Z" id="Path" fill="#FEFEFF"/>
                    <path d="M155.089286,22.5503157 C155.089286,22.5503157 159.185117,17.7170481 166.436754,14.5175612 C173.486956,11.4542226 179.597131,11.25 180,11.25 C180.470013,11.25 186.580189,11.4542226 193.563246,14.5175612 C200.814883,17.648974 204.910714,22.5503157 204.910714,22.5503157 L203.970687,48.2142857 L202.560647,24.2521705 C202.560647,24.2521705 201.62062,23.1629834 199.539132,21.8014996 C197.457643,20.4400158 194.368983,18.8062352 194.368983,18.8062352 C194.368983,18.8062352 194.906142,23.6395028 190.474586,27.5197316 C186.244465,31.2638122 180.335724,31.4680347 179.86571,31.4680347 C179.395697,31.4680347 173.486956,31.2638122 169.256835,27.5197316 C164.892424,23.6395028 165.362437,18.8062352 165.362437,18.8062352 C165.362437,18.8062352 162.340922,20.3719416 160.192289,21.8014996 C158.110801,23.1629834 157.170774,24.2521705 157.170774,24.2521705 L155.760734,48.2142857 L155.089286,22.5503157 L155.089286,22.5503157 Z" id="Path" fill="#FFFFFF"/>
                    <path d="M136.607143,60.5259828 C136.916209,60.9912553 137.348901,62.0547352 137.657967,64.3146301 C137.967033,66.0427851 137.967033,67.50507 137.90522,68.701485 C138.708791,68.7679525 139.26511,68.2362125 139.26511,68.2362125 C139.26511,68.2362125 139.759615,77.7410646 136.854396,75.8799747 C137.225275,76.6775847 137.657967,77.1428571 138.090659,77.1428571 C139.512363,77.1428571 140.625,73.0218723 140.625,67.903875 C140.625,62.7858777 139.512363,58.6648929 138.090659,58.6648929 C137.534341,58.5984254 137.039835,59.3295678 136.607143,60.5259828 L136.607143,60.5259828 Z" id="Path" fill="#8BBF0A"/>
                    <path d="M192.281673,125.706123 C188.69086,127.463091 184.354784,129.000438 179.476698,129.43968 C174.598612,129.000438 170.262536,127.463091 166.671723,125.706123 L166.671723,125.706123 C163.555168,124.241983 162.809905,128.121954 165.926459,129.586094 C169.856029,131.416268 174.46311,132.880408 179.6122,133.392857 C184.761291,132.953615 189.368372,131.416268 193.297941,129.586094 C196.346745,128.121954 195.669233,124.168776 192.552678,125.706123 L192.552678,125.706123 L192.281673,125.706123 Z" id="Path" fill="#0086FF" fill-rule="nonzero"/>
                    <path d="M200.897399,121.252464 C200.754066,121.376038 200.539067,121.499612 200.324068,121.623186 L200.324068,121.623186 C199.822404,121.93212 199.535738,122.117481 199.320739,122.241055 C198.747408,122.549989 198.174078,122.920711 197.52908,123.229646 L197.52908,123.229646 C196.024087,124.032876 197.242415,127.184009 199.89407,125.824696 C201.327397,125.083253 202.474058,124.403597 203.477387,123.785728 L203.477387,123.785728 L203.477387,123.785728 C203.62072,123.662154 204.910714,122.73535 204.910714,121.93212 C204.839048,121.12889 203.692386,119.646004 200.897399,121.252464 L200.897399,121.252464 Z" id="Path" fill="#055CA8" fill-rule="nonzero"/>
                    <path d="M158.29903,121.252464 C158.442362,121.376038 158.657361,121.499612 158.872361,121.623186 L158.872361,121.623186 C159.374025,121.93212 159.66069,122.117481 159.875689,122.241055 C160.44902,122.549989 161.022351,122.920711 161.667348,123.229646 L161.667348,123.229646 C163.172341,124.032876 161.954013,127.184009 159.302359,125.824696 C157.869032,125.083253 156.72237,124.403597 155.719041,123.785728 L155.719041,123.785728 L155.719041,123.785728 C155.575709,123.662154 154.285714,122.73535 154.285714,121.93212 C154.357381,121.12889 155.504042,119.646004 158.29903,121.252464 L158.29903,121.252464 Z" id="Path" fill="#055CA8" fill-rule="nonzero"/>
                    <path d="M89.757826,124.553571 C89.757826,124.553571 87.9415213,122.759772 87.3360865,121.364595 C86.6701081,119.902981 86.6701081,118.972863 86.6701081,118.972863 L90,116.780442 C89.1523911,114.853768 88.3653258,110.867548 88.4258693,107.678571 C82.7347812,111.133296 82.9164117,121.962528 89.757826,124.553571 L89.757826,124.553571 Z" id="Path" fill="#055CA8"/>
                    <path d="M82.7253487,110.892857 C82.7253487,110.892857 81.7477776,113.892699 81.869974,116.619828 C81.9921704,119.346957 82.8475451,120.642343 82.8475451,120.642343 L80.2203227,122.892224 C80.3425191,125.551175 82.0532686,128.619195 84.375,129.369155 C79.9759299,129.641868 76.554431,120.301452 78.5095732,115.938046 C79.364948,114.165412 80.8313047,112.460956 82.7253487,110.892857 L82.7253487,110.892857 Z" id="Path" fill="#055CA8"/>
                    <path d="M75.3599377,117.321429 C75.3599377,117.321429 74.9253981,118.62307 75.2150912,121.226353 C75.5772075,123.894719 76.2290168,125.001114 76.2290168,125.001114 L73.6942026,127.344069 C75.1426679,129.687024 77.3153658,131.314076 80.3571429,131.574404 C75.432361,132.941128 70.8696954,127.409151 71.593928,122.723241 C72.0284676,120.054876 75.432361,117.321429 75.3599377,117.321429 L75.3599377,117.321429 Z" id="Path" fill="#055CA8"/>
                    <path d="M74.7321429,122.74906 C74.6720628,122.396617 74.6119826,121.973684 74.6119826,121.550752 C74.3115821,118.660714 74.7321429,117.321429 74.7321429,117.321429 C74.7321429,117.321429 71.9083778,120.281955 71.6079773,123.101504 C71.4878171,123.87688 71.4878171,124.581767 71.6079773,125.357143 L74.7321429,122.74906 L74.7321429,122.74906 Z" id="Path" fill="#0086FF"/>
                    <path d="M78.6459404,115.650846 C77.8828366,117.046523 77.7440904,118.695959 78.229702,120.535714 L82.7389517,117.617481 C82.6002055,117.236842 82.6002055,116.729323 82.6002055,116.221805 C82.4614594,113.684211 83.5714286,110.892857 83.5714286,110.892857 C81.3514902,112.288534 79.6865365,113.87453 78.6459404,115.650846 L78.6459404,115.650846 Z" id="Path" fill="#0086FF"/>
                    <path d="M88.6304673,107.678571 C85.5491227,109.446429 84.1027772,113.108418 84.4172002,116.517857 L89.1964286,113.171556 C88.8191211,111.466837 88.5675827,109.446429 88.6304673,107.678571 Z" id="Path" fill="#0086FF"/>
                    <path d="M67.3025902,122.142857 C67.3025902,122.142857 66.3647715,127.807638 69.714124,132.135785 C73.0634765,136.463932 79.4942334,137.036775 79.4942334,137.036775 C79.4942334,137.036775 79.7621816,138.564356 79.1592982,139.710042 C78.5564147,140.855728 76.345842,141.428571 76.345842,141.428571 C76.345842,141.428571 70.0490593,137.673267 64.7570823,135.572843 C59.4651053,133.408769 57.0535714,133.281471 57.0535714,133.281471 C57.0535714,133.281471 59.13017,126.598303 61.6086909,124.752475 C64.0872118,122.906648 67.2356031,122.206506 67.3025902,122.142857 L67.3025902,122.142857 Z" id="Path" fill="#CED8F0"/>
                    <path d="M60.7090336,135 C61.2132353,133.358663 62.1586134,130.554711 63.8602941,128.43465 C64.8056723,127.272036 65.8140756,126.382979 66.6334034,125.904255 C66.4443277,123.715805 66.6964286,122.142857 66.6964286,122.142857 C66.6964286,122.142857 63.6712185,122.826748 61.3392857,124.81003 C59.0073529,126.861702 57.0535714,133.974164 57.0535714,133.974164 C57.0535714,133.974164 58.2510504,134.110942 60.7090336,135 L60.7090336,135 Z" id="Path" fill="#FFFFFF"/>
                    <path d="M18.2091178,171.131997 C18.2091178,171.131997 12.1555811,168.303344 10.0726437,164.060365 C7.98970637,159.817387 8.96608326,154.025384 9.94246014,154.294779 C10.918837,154.564175 21.5287992,158.605107 21.5287992,158.605107 C21.5287992,158.605107 23.0259104,159.0092 23.2862776,162.107248 C23.4815529,165.137947 21.9844417,168.303344 20.7476977,169.852368 C19.5109536,171.266694 18.2091178,171.199346 18.2091178,171.131997 L18.2091178,171.131997 Z" id="Path" fill="#CED8F0"/>
                    <path d="M25.3593294,165.535714 C25.3593294,165.535714 25.491959,166.21699 24.8288112,167.889212 C24.2319783,169.561434 23.3035714,170.180776 23.3035714,170.180776 C23.3035714,170.180776 24.4309226,170.738183 25.491959,169.871105 C26.4203658,169.004027 26.6856249,167.022134 26.4203658,166.464727 C26.2877363,166.031188 25.3593294,165.597648 25.3593294,165.535714 L25.3593294,165.535714 Z" id="Path" fill="#8BBF0A"/>
                    <path d="M29.9193854,164.060592 C29.9193854,164.060592 30.6310176,165.981483 29.2077531,169.823265 C27.7844886,173.665046 25.7142857,174.376488 25.7142857,174.376488 C25.7142857,174.376488 25.9730611,175.585937 27.1375502,175.941658 C28.3020393,176.297379 30.7604053,174.305343 31.6661191,170.107841 C32.5718328,165.910339 31.9895883,164.060592 31.5367314,163.562583 C31.0838745,163.064574 30.5016299,163.064574 30.2428546,163.206862 C30.048773,163.349151 29.9193854,163.491439 29.7899977,163.704871 C29.7253038,163.918304 29.7253038,164.131736 29.7253038,164.131736 L29.9193854,164.060592 Z" id="Path" fill="#606C80"/>
                    <path d="M33.0168144,182.410714 L34.3717414,191.010734 C34.3717414,191.010734 32.7587331,192.365068 32.1135297,193.109952 C31.4683264,193.854835 31.3392857,194.464286 31.3392857,194.464286 C31.3392857,194.464286 32.5651721,193.245385 35.8557091,193.380819 C39.1462461,193.516252 40.1785714,194.396569 40.1785714,194.396569 C40.1785714,194.396569 40.0495308,190.198134 38.3074818,186.812299 C36.6299531,183.494181 33.0168144,182.410714 33.0168144,182.410714 L33.0168144,182.410714 Z" id="Path" fill="#FFFFFF"/>
                    <path d="M45.9212921,189.642857 L46.5201319,195.48105 C46.5201319,195.48105 45.4555278,195.349854 44.5905369,195.546647 C43.725546,195.677843 43.3928571,196.071429 43.3928571,196.071429 C43.3928571,196.071429 46.1874431,196.59621 49.3812557,197.44898 C52.5750682,198.367347 53.8392857,199.285714 53.8392857,199.285714 C53.8392857,199.285714 52.3089172,195.940233 49.9135578,192.988338 C47.5847361,190.036443 45.9212921,189.642857 45.9212921,189.642857 L45.9212921,189.642857 Z" id="Path" fill="#FFFFFF"/>
                    <path d="M59.4642857,196.071429 L61.8800223,201.769481 L69.9107143,204.910714 C69.9107143,204.910714 67.9520089,200.965909 65.2098214,198.920455 C62.4676339,196.948052 59.4642857,196.071429 59.4642857,196.071429 L59.4642857,196.071429 Z" id="Path" fill="#FFFFFF"/>
                    <path d="M71.5178571,201.696429 C71.5178571,201.696429 73.1519139,203.63676 74.0669856,205.074042 C74.9166951,206.511324 75.0474197,206.870645 75.0474197,206.870645 L85.1785714,210.535714 C85.1785714,210.535714 82.8255297,206.870645 78.0540841,204.355401 C73.2172761,201.768293 71.5178571,201.696429 71.5178571,201.696429 L71.5178571,201.696429 Z" id="Path" fill="#606C80"/>
                    <path d="M35.2654732,209.691312 C32.1136008,201.565141 40.1902738,198.246954 44.5897624,201.091114 L58.7731883,210.300775 C58.7731883,210.300775 61.0714286,211.587419 61.0714286,214.837888 C61.0714286,218.088356 60.7431085,219.375 60.7431085,219.375 L38.6800017,204.138429 C38.6800017,204.138429 36.8414094,204.273865 35.9221133,206.102253 C35.0028172,207.930642 35.2654732,209.623594 35.2654732,209.623594 L35.2654732,209.691312 Z" id="Path" fill="#A8B3CC"/>
                    <path d="M62.6789279,212.946429 C62.6789279,212.946429 63.293644,213.66887 63.4302476,214.522665 C63.5668512,215.310783 63.4985494,218.069196 63.4985494,218.069196 C63.4985494,218.069196 73.334007,220.499227 74.1536285,221.221669 C75.0415517,221.944111 76.2709839,226.607143 76.2709839,226.607143 L76.3392857,219.054344 C76.3392857,219.054344 75.929475,217.215402 74.1536285,216.49296 C72.377782,215.836195 62.6106261,212.946429 62.6789279,212.946429 L62.6789279,212.946429 Z" id="Path" fill="#FFFFFF"/>
                    <path d="M64.2857143,223.394664 C64.2857143,223.394664 64.4779798,224.287019 66.0161043,224.703452 C67.4901402,225.119884 74.7321429,226.607143 74.7321429,226.607143 C74.7321429,226.607143 73.7067266,225.238865 72.5531332,225.000903 C71.3995399,224.762942 64.2857143,223.335174 64.2857143,223.394664 L64.2857143,223.394664 Z" id="Path" fill="#D7CC75"/>
                    <path d="M81.1607143,219.693101 L81.1607143,221.785714 C83.414028,220.961352 88.5543999,218.361438 90.7372975,219.883339 C92.0047865,220.771114 92.1456186,221.278414 92.9201951,221.468652 C93.6947717,221.595477 94.8214286,221.215002 94.8214286,221.215002 C92.779363,219.439451 91.441458,217.537076 88.3431517,217.790726 C86.5123343,217.917551 81.2311303,219.693101 81.1607143,219.693101 L81.1607143,219.693101 Z" id="Path" fill="#FFFFFF"/>
                    <path d="M81.1607143,233.839286 C81.1607143,233.839286 81.1607143,232.70654 82.1847345,231.573795 C83.1447535,230.50398 95.625,223.392857 95.625,223.392857 C95.625,223.392857 95.1129899,225.658348 93.0649494,226.854023 C90.9529077,228.049699 81.1607143,233.776355 81.1607143,233.839286 L81.1607143,233.839286 Z" id="Path" fill="#D7CC75"/>
                    <path d="M98.0357143,229.821429 C98.0357143,229.821429 98.1717687,228.51834 99.0561224,227.606178 C99.9404762,226.694015 110.892857,220.178571 110.892857,220.178571 C110.892857,220.178571 110.008503,222.263514 108.647959,223.305985 C107.355442,224.41361 98.0357143,229.821429 98.0357143,229.821429 Z" id="Path" fill="#D7CC75"/>
                    <path d="M98.0357143,216.586937 L99.1299392,217.767857 C99.1299392,217.767857 103.848784,215.274802 105.6269,215.143589 C107.473404,215.012376 110.892857,215.799656 110.892857,215.799656 C110.892857,215.799656 109.661854,214.028275 106.789514,213.765848 C103.985562,213.503422 98.0357143,216.586937 98.0357143,216.586937 L98.0357143,216.586937 Z" id="Path" fill="#FFFFFF"/>
                    <path d="M32.275405,199.279035 C32.275405,199.279035 33.2032401,198.10053 35.3240059,197.615263 C37.4447717,197.129996 38.5714286,197.476615 38.5714286,197.476615 C38.5714286,197.476615 37.6435935,195.882167 35.1251841,196.090138 C32.6730486,196.228786 32.2091311,198.169854 32.1428571,198.516473 C32.1428571,198.863092 32.275405,199.348359 32.275405,199.279035 L32.275405,199.279035 Z" id="Path" fill="#8BBF0A"/>
                    <path d="M48.2142857,200.901879 C48.2142857,200.901879 50.6837979,200.757529 52.1929443,201.623629 C53.7020906,202.417554 53.8392857,204.07758 53.8392857,204.07758 C53.8392857,204.07758 51.9871516,204.36628 50.2722125,203.139305 C48.6258711,201.984504 48.2142857,200.974054 48.2142857,200.901879 L48.2142857,200.901879 Z" id="Path" fill="#8BBF0A"/>
                    <path d="M63.4881215,206.082286 C63.4881215,206.082286 64.6254556,205.372408 66.6994179,205.924536 C68.7733801,206.476663 69.9107143,208.448546 69.9107143,208.448546 C69.9107143,208.448546 68.6395761,209.473925 66.2311038,208.527422 C63.8895335,207.580918 63.4212195,206.082286 63.4881215,206.082286 L63.4881215,206.082286 Z" id="Path" fill="#8BBF0A"/>
                    <path d="M78.75,211.640846 C78.75,211.640846 79.3125,211.215599 81.375,211.375066 C83.4375,211.58769 84.375,212.544494 84.375,212.544494 C84.375,212.544494 83.3125,213.076052 81.5625,212.916585 C79.8125,212.757118 78.75,211.640846 78.75,211.640846 Z" id="Path" fill="#8BBF0A"/>
                    <path d="M36.9642857,193.516252 L35.5745798,183.697331 C34.2510504,182.749298 33.0598739,182.410714 33.0598739,182.410714 L34.4495798,191.010734 C34.4495798,191.010734 32.7951681,192.365068 32.1334034,193.109952 C31.4716387,193.854835 31.3392857,194.464286 31.3392857,194.464286 C31.3392857,194.464286 32.5966387,193.245385 35.9716387,193.380819 C36.3686975,193.380819 36.6334034,193.448535 36.9642857,193.516252 L36.9642857,193.516252 Z" id="Path" fill="#606C80"/>
                    <path d="M45.7945425,188.035714 L46.3633628,194.646609 C46.3633628,194.646609 45.3521268,194.498049 44.5304976,194.720888 C43.7088684,194.869448 43.3928571,195.315126 43.3928571,195.315126 C43.3928571,195.315126 46.0473515,195.909364 49.0178571,196.875 L47.8802167,189.818427 C46.5529695,188.407113 45.668138,188.184274 45.668138,188.184274 L45.7945425,188.035714 Z" id="Path" fill="#606C80"/>
                    <path d="M59.4642857,196.071429 L61.9128151,201.349624 L65.0892857,202.5 C64.427521,201.146617 63.5010504,198.981203 62.6407563,197.221805 C60.9201681,196.409774 59.4642857,196.071429 59.4642857,196.071429 L59.4642857,196.071429 Z" id="Path" fill="#606C80"/>
                    <path d="M61.0714286,216.482038 L37.967059,200.892857 C35.268258,202.169557 33.4909988,205.193321 35.268258,209.762564 C35.268258,209.762564 35.0707848,208.082695 35.9265021,206.268437 C36.848044,204.454179 38.6911276,204.319789 38.6911276,204.319789 L60.8081309,219.371412 C60.8081309,219.438607 61.0056042,218.565075 61.0714286,216.482038 L61.0714286,216.482038 Z" id="Path" fill="#606C80"/>
                    <path d="M64.2857143,216.160714 C64.2857143,217.167599 64.2857143,218.426205 64.2857143,218.426205 C64.2857143,218.426205 74.1337386,220.754626 74.9544073,221.446859 C75.843465,222.139092 77.0744681,226.607143 77.0744681,226.607143 L77.1428571,220.628765 C76.8009119,220.125323 76.3905775,219.55895 75.9802432,219.370159 C75.0227964,218.929647 67.5683891,217.041738 64.2857143,216.160714 L64.2857143,216.160714 Z" id="Path" fill="#606C80"/>
                    <path d="M72.5531332,225 C71.3995399,224.761905 64.2857143,223.392857 64.2857143,223.392857 C64.2857143,223.392857 64.4779798,224.285714 66.0161043,224.702381 C67.4901402,225.119048 74.7321429,226.607143 74.7321429,226.607143 C74.7321429,226.607143 73.7067266,225.178571 72.5531332,225 L72.5531332,225 Z" id="Path" fill="#606C80"/>
                    <path d="M95.625,223.392857 C95.625,223.392857 83.1447535,230.50398 82.1847345,231.573795 C81.2247155,232.64361 81.1607143,233.839286 81.1607143,233.839286 C81.1607143,233.839286 91.016909,228.049699 93.0649494,226.916954 C95.1769912,225.658348 95.625,223.455787 95.625,223.392857 L95.625,223.392857 Z" id="Path" fill="#606C80"/>
                    <path d="M110.892857,220.178571 C110.892857,220.178571 100.076531,226.628861 99.0561224,227.606178 C98.1037415,228.51834 98.0357143,229.821429 98.0357143,229.821429 C98.0357143,229.821429 107.355442,224.478764 108.647959,223.371139 C109.940476,222.263514 110.892857,220.178571 110.892857,220.178571 Z" id="Path" fill="#606C80"/>
                    <path d="M40.9821429,200.902376 L61.0714286,214.553571 C60.8788795,211.771574 58.8250228,210.671715 58.8250228,210.671715 L44.9614902,201.87284 C43.8061958,201.096469 42.3941693,200.837678 40.9821429,200.902376 L40.9821429,200.902376 Z" id="Path" fill="#FFFFFF"/>
                    <path d="M71.5178571,201.696429 C71.5178571,201.696429 72.694378,203.061847 73.6094498,204.427265 C75.112782,205.074042 77.07365,206.008275 78.8384313,207.301829 C79.7535031,207.948606 80.472488,208.523519 80.9953862,209.026568 L85.1785714,210.535714 C85.1785714,210.535714 82.8255297,206.870645 78.0540841,204.355401 C73.2172761,201.840157 71.5178571,201.696429 71.5178571,201.696429 L71.5178571,201.696429 Z" id="Path" fill="#FFFFFF"/>
                    <path d="M34.5535714,179.627881 L55.2298501,190.439433 C55.2298501,190.439433 56.1758237,190.638419 56.2433932,188.913877 C56.3109627,187.189334 55.837976,180.291166 55.837976,180.291166 C55.837976,180.291166 51.6486646,177.770682 49.0810221,174.586912 C46.4458102,171.46947 45.8376843,168.75 45.8376843,168.75 L44.8241412,180.55648 L34.5535714,179.627881 L34.5535714,179.627881 Z" id="Path" fill="#606C80"/>
                    <path d="M46.4363134,168.75 L45.8035714,176.334641 C46.1832166,177.066492 46.7526843,177.864875 47.5752488,178.796323 C49.6632972,181.191472 50.6124101,181.4576 50.8022326,181.657196 C50.928781,181.79026 50.928781,185.715644 50.928781,187.97773 L55.2947003,190.439412 C55.2947003,190.439412 56.180539,190.639007 56.2438132,188.909177 C56.3070874,187.179347 55.864168,180.260025 55.864168,180.260025 C55.864168,180.260025 51.9411681,177.731812 49.5367488,174.538279 C47.0690553,171.477809 46.4995875,168.75 46.4363134,168.75 L46.4363134,168.75 Z" id="Path" fill="#FFFFFF"/>
                    <path d="M19.3889253,165.717145 C19.3889253,165.717145 12.8202818,163.653465 10.8297837,162.402751 C10.0999345,161.902465 9.43643512,161.339643 8.83928571,160.714286 C8.97198558,161.965 9.37008519,163.340787 9.9672346,164.591501 C12.0904325,168.531253 18.2609764,171.157754 18.2609764,171.157754 C18.2609764,171.157754 19.5879751,171.282825 20.8486239,169.907039 C21.7775229,168.843932 22.8391219,167.030395 23.3035714,164.90418 C21.5121232,165.904752 19.3889253,165.717145 19.3889253,165.717145 Z" id="Path" fill="#606C80"/>
                    <path d="M9.10227273,156.095849 C9.69399351,156.467219 18.0438312,159.512457 23.3035714,161.517857 C22.9748377,158.621168 21.5284091,158.249797 21.5284091,158.249797 C21.5284091,158.249797 10.8116883,153.719078 9.82548701,153.496256 C9.43100649,153.347708 9.03652597,154.387545 8.83928571,155.873027 C8.97077922,155.947301 9.03652597,155.947301 9.10227273,156.095849 L9.10227273,156.095849 Z" id="Path" fill="#FFFFFF"/>
                    <path d="M296.655148,163.685719 L299.008026,167.902915 L301.23019,172.054217 C302.014482,171.922429 302.929491,172.186004 303.583068,172.779047 C304.759508,173.833346 304.890223,175.612475 303.844499,176.798562 C303.386995,177.325711 302.798775,177.589286 302.210556,177.721073 L301.23019,182.597205 L300.315181,187.34155 C300.380539,187.407444 300.445897,187.407444 300.445897,187.473338 C301.622336,188.527636 301.753052,190.306766 300.707328,191.492852 C299.857677,192.415364 298.550522,192.678938 297.439441,192.217683 L293.648692,195.248792 L289.923301,198.214007 C290.119374,199.070625 289.923301,199.993137 289.269723,200.717967 C288.224,201.904053 286.459341,202.035841 285.282901,200.981542 C284.956113,200.717967 284.760039,200.454392 284.563966,200.05903 L279.662136,199.927243 L274.891021,199.795456 C274.760305,199.927243 274.694948,200.124924 274.564232,200.190818 C273.518508,201.376904 271.753849,201.508691 270.57741,200.454392 C269.793117,199.729562 269.466328,198.741157 269.662402,197.752752 L265.93701,194.458068 L262.146262,191.163384 C261.231253,191.492852 260.185529,191.295171 259.401237,190.636234 C258.224797,189.581935 258.094082,187.802806 259.139806,186.61672 C259.270521,186.484932 259.401237,186.353145 259.531952,186.221358 L258.813017,181.542906 L258.028724,176.337306 C257.767293,176.205518 257.57122,176.073731 257.309789,175.87605 C256.13335,174.821751 256.002634,173.042622 257.048358,171.856536 C257.636578,171.131705 258.486228,170.86813 259.335879,170.934024 L261.688757,167.046297 L264.433782,162.499633 C263.910921,161.511228 264.041636,160.193354 264.825929,159.336737 C265.871653,158.15065 267.636312,158.018863 268.812751,159.073162 C268.878109,159.139056 268.943466,159.204949 269.008824,159.204949 L273.19172,157.821182 L277.832119,156.239734 C277.832119,155.580797 278.09355,154.92186 278.551054,154.460604 C279.596778,153.274518 281.361437,153.142731 282.537876,154.19703 C283.191454,154.790073 283.518242,155.64669 283.452885,156.437415 L287.831853,158.216544 L292.341537,159.995673 C293.387261,158.875481 295.15192,158.743693 296.328359,159.732099 C297.570156,160.720504 297.635514,162.499633 296.655148,163.685719 L296.655148,163.685719 Z M291.230456,176.073731 C291.426529,176.205518 291.557244,176.403199 291.68796,176.600881 L298.877311,175.019432 C298.877311,174.360495 299.073384,173.701559 299.530888,173.174409 L297.243368,168.957214 L294.890489,164.740018 C294.759773,164.740018 294.629058,164.740018 294.498342,164.740018 L290.642236,175.678369 C290.838309,175.678369 291.034382,175.87605 291.230456,176.073731 L291.230456,176.073731 Z M292.145464,178.116435 C292.145464,178.841266 291.949391,179.500202 291.426529,180.093246 C291.09974,180.422714 290.772951,180.686289 290.380805,180.818076 L288.158642,196.237197 C288.289357,196.303091 288.48543,196.368984 288.616146,196.500772 L292.210822,193.535556 L295.805497,190.636234 C295.413351,189.713723 295.544066,188.461743 296.328359,187.671019 C296.851221,187.077976 297.504798,186.748507 298.223734,186.748507 L299.138742,182.13595 L300.05375,177.259817 C299.923035,177.12803 299.792319,177.12803 299.726962,176.996243 C299.596246,176.864455 299.400173,176.666774 299.269457,176.469093 L292.145464,178.116435 L292.145464,178.116435 Z M288.746861,181.015757 C288.289357,180.88397 287.831853,180.686289 287.439707,180.35682 C287.308991,180.225033 287.308991,180.225033 287.178276,180.093246 L278.485696,183.915079 C278.485696,184.376335 278.354981,184.83759 278.158908,185.232953 C279.923567,188.132274 283.5836,193.60145 285.478974,196.434878 C285.936479,196.171303 286.132552,196.10541 286.524698,196.10541 L288.746861,181.015757 L288.746861,181.015757 Z M286.524698,178.577691 C286.393983,177.984648 286.524698,177.391605 286.851487,176.798562 L279.204632,171.065811 C278.877843,171.263492 278.616412,171.39528 278.289623,171.39528 L276.917111,181.147544 C277.178542,181.279332 277.439973,181.411119 277.636046,181.6088 C277.832119,181.806481 278.028192,182.004162 278.158908,182.267737 L286.524698,178.577691 L286.524698,178.577691 Z M287.962569,175.678369 C288.289357,175.546582 288.616146,175.348901 288.942935,175.348901 L292.929757,164.212869 C292.799041,164.146975 292.733684,164.081081 292.602968,163.949294 C292.472253,163.817507 292.406895,163.817507 292.341537,163.685719 L280.511786,168.561852 C280.511786,169.023107 280.446429,169.484363 280.250355,169.879725 L287.962569,175.678369 L287.962569,175.678369 Z M277.113184,186.287251 C276.786395,186.484932 276.328891,186.61672 275.936745,186.682613 L273.976012,196.10541 C274.106728,196.171303 274.106728,196.237197 274.237443,196.303091 C274.694948,196.698453 274.956378,197.225602 275.152452,197.752752 L279.727493,197.884539 L284.367893,198.016326 C284.498608,197.620964 284.563966,197.489177 284.694682,197.291496 C282.211088,194.194493 279.008558,188.922999 277.113184,186.287251 L277.113184,186.287251 Z M274.302801,186.353145 C274.106728,186.221358 273.976012,186.155464 273.779939,186.023677 C273.649224,185.891889 273.45315,185.694208 273.322435,185.496527 L264.041636,188.659424 C264.041636,189.12068 263.910921,189.581935 263.714847,189.977297 L267.244165,193.0743 L270.708125,196.171303 C271.230987,195.841835 271.819207,195.644154 272.407427,195.644154 L274.302801,186.353145 L274.302801,186.353145 Z M272.864931,183.915079 C272.864931,183.651504 272.864931,183.387929 272.995646,183.124355 L261.231253,175.810156 C260.904465,176.139625 260.577676,176.337306 260.185529,176.534987 L260.904465,181.279332 L261.6234,185.760102 C262.146262,185.825996 262.734481,186.08957 263.126628,186.484932 C263.322701,186.61672 263.453416,186.814401 263.64949,187.012082 L272.864931,183.915079 L272.864931,183.915079 Z M273.779939,181.674694 C274.172086,181.345225 274.694948,181.081651 275.217809,180.949863 L276.590322,171.263492 C276.263533,171.131705 276.06746,170.934024 275.806029,170.736343 C275.609956,170.538662 275.413883,170.340981 275.283167,170.077406 L262.080904,173.701559 C262.080904,173.89924 262.080904,174.031027 262.015546,174.228708 L273.779939,181.674694 L273.779939,181.674694 Z M279.53142,166.519148 C279.662136,166.650935 279.858209,166.848616 279.988924,167.046297 L291.68796,162.236058 C291.68796,162.104271 291.622602,161.972484 291.622602,161.840696 L287.178276,160.061567 L282.668592,158.282438 C282.14573,158.875481 281.361437,159.139056 280.642502,159.139056 L279.073916,166.189679 C279.204632,166.321467 279.400705,166.38736 279.53142,166.519148 L279.53142,166.519148 Z M274.825663,168.561852 C274.825663,167.902915 275.087094,167.243978 275.544598,166.782722 C276.06746,166.189679 276.721037,165.860211 277.50533,165.860211 L279.073916,158.743693 C278.943201,158.6778 278.877843,158.611906 278.747127,158.480119 C278.616412,158.348331 278.551054,158.282438 278.485696,158.216544 L273.910655,159.732099 L269.793117,161.115866 C269.793117,161.840696 269.597044,162.499633 269.074182,163.092676 C268.289889,164.015188 267.11345,164.278762 266.067726,163.949294 L263.518774,168.16649 L261.231253,171.922429 C261.361969,172.054217 261.427326,172.186004 261.558042,172.317791 L274.825663,168.561852 L274.825663,168.561852 Z" id="Shape" fill="#FFFFFF"/>
                    <path d="M239.19901,139.945134 C239.19901,139.945134 236.655799,154.003507 235.808063,155.0546 C234.895115,156.04 227.656748,160.507147 227.656748,160.507147 C227.656748,160.507147 226.091695,161.426854 225.830853,159.39036 C225.570011,157.353867 227.265485,156.696934 227.265485,156.696934 C227.265485,156.696934 232.677958,152.886721 233.264852,152.361174 C233.851747,151.835627 235.4168,142.113014 235.612431,141.718854 C235.808063,141.390388 235.808063,140.207908 237.373115,138.894041 C238.872957,137.514481 239.525062,138.565574 239.459852,139.156814 C239.26422,139.682361 239.133799,139.945134 239.19901,139.945134 L239.19901,139.945134 Z" id="Path" fill="#606C80"/>
                    <path d="M216.964286,154.285714 C216.964286,154.285714 215.256522,155.99821 212.826242,157.513109 C210.395963,159.028009 210.067547,159.093874 210.067547,159.093874 C210.067547,159.093874 208.753882,161.596752 208.294099,163.506843 C207.834317,165.4828 207.768634,166.668373 207.768634,166.668373 C207.768634,166.668373 214.139907,162.518865 215.584938,160.147718 C217.029969,157.77657 216.898602,154.285714 216.964286,154.285714 L216.964286,154.285714 Z M141.428571,154.285714 C141.428571,154.285714 143.136335,155.99821 145.566615,157.513109 C147.996894,159.028009 148.325311,159.093874 148.325311,159.093874 C148.325311,159.093874 149.638975,161.596752 150.098758,163.506843 C150.55854,165.4828 150.624224,166.668373 150.624224,166.668373 C150.624224,166.668373 144.25295,162.518865 142.807919,160.147718 C141.362888,157.908301 141.494255,154.285714 141.428571,154.285714 L141.428571,154.285714 Z M143.464752,164.824147 C143.464752,164.824147 145.172516,166.668373 147.208696,168.117408 C149.244876,169.566442 151.412422,170.752016 151.412422,170.752016 C151.412422,170.752016 153.448602,177.931324 153.317236,177.865458 C153.18587,177.799593 145.895031,171.805859 144.975466,170.159229 C144.055901,168.644329 143.530435,164.824147 143.464752,164.824147 L143.464752,164.824147 Z M148.325311,177.272672 C148.325311,177.272672 149.441925,178.589976 150.886957,179.577954 C152.266304,180.565932 153.711335,181.42218 153.711335,181.42218 C153.711335,181.42218 154.959317,186.493801 154.82795,186.427935 C154.696584,186.36207 149.770342,182.212562 149.179193,181.026988 C148.653727,179.90728 148.325311,177.206806 148.325311,177.272672 L148.325311,177.272672 Z M210.001863,177.272672 C210.001863,177.272672 208.885248,178.589976 207.440217,179.577954 C206.06087,180.565932 204.615839,181.42218 204.615839,181.42218 C204.615839,181.42218 203.367857,186.493801 203.499224,186.427935 C203.63059,186.36207 208.556832,182.212562 209.147981,181.026988 C209.73913,179.90728 210.001863,177.206806 210.001863,177.272672 L210.001863,177.272672 Z M214.928106,164.824147 C214.928106,164.824147 213.220342,166.668373 211.184161,168.117408 C209.147981,169.566442 206.980435,170.752016 206.980435,170.752016 C206.980435,170.752016 204.944255,177.931324 205.075621,177.865458 C205.206988,177.799593 212.497826,171.805859 213.417391,170.159229 C214.336957,168.644329 214.862422,164.824147 214.928106,164.824147 L214.928106,164.824147 Z" id="Shape" fill="#8BBF0A"/>
                    <path d="M212.142857,157.5 C209.972263,158.823933 209.774937,158.890129 209.774937,158.890129 C209.774937,158.890129 208.459425,161.405602 207.998996,163.325304 C207.538567,165.311204 207.472792,166.502743 207.472792,166.502743 C207.472792,166.502743 208.98563,165.509794 210.76157,164.185861 L212.142857,157.5 Z M145.446429,157.5 L146.827716,164.252057 C148.603656,165.57599 150.116494,166.56894 150.116494,166.56894 C150.116494,166.56894 149.984943,165.311204 149.59029,163.391501 C149.129861,161.405602 147.814349,158.956326 147.814349,158.956326 C147.814349,158.956326 147.617022,158.890129 145.446429,157.5 Z M147.682798,168.621036 L148.866758,174.512537 C150.840025,176.299846 152.681741,177.756172 152.813292,177.822369 C152.944844,177.888565 150.905801,170.673132 150.905801,170.673132 C150.905801,170.673132 149.392963,169.746379 147.682798,168.621036 L147.682798,168.621036 Z M149.853392,179.013908 L150.642699,183.051903 C152.287088,184.574426 154.391906,186.427932 154.457682,186.427932 C154.589233,186.494129 153.339497,181.396987 153.339497,181.396987 C153.339497,181.396987 151.892434,180.536431 150.511148,179.543482 C150.248045,179.344892 150.050719,179.212498 149.853392,179.013908 Z M206.946587,182.985707 L207.735894,178.947712 C207.538567,179.080105 207.34124,179.278695 207.143914,179.477285 C205.762627,180.470234 204.315564,181.330791 204.315564,181.330791 C204.315564,181.330791 203.065828,186.427932 203.19738,186.361736 C203.263155,186.361736 205.302198,184.574426 206.946587,182.985707 Z M208.722527,174.512537 L209.906488,168.621036 C208.196323,169.746379 206.683485,170.606935 206.683485,170.606935 C206.683485,170.606935 204.644442,177.822369 204.775993,177.756172 C204.841769,177.822369 206.74926,176.233649 208.722527,174.512537 L208.722527,174.512537 Z" id="Shape" fill="#9FEF00"/>
                    <path d="M228.890463,102.137069 C228.890463,102.137069 231.013582,97.2223761 232.879352,99.3925004 C234.680786,101.498798 233.394048,105.07312 233.394048,105.200774 C232.815015,106.541145 232.171646,107.881516 231.46394,109.285714 C231.013582,108.519788 230.434549,107.690035 229.533833,106.924108 C228.76179,106.222009 228.054083,105.775219 227.410714,105.456083 C227.861073,104.562503 228.247094,103.605095 228.633116,102.711514 C228.76179,102.456205 228.826126,102.328551 228.890463,102.137069 L228.890463,102.137069 Z" id="Path" fill="#FEFEFF"/>
                    <path d="M220.422078,115.714286 C221.181006,116.225344 222.008929,116.736402 222.905844,117.183577 C223.871753,117.694635 224.906656,117.886282 225.803571,117.950164 C222.491883,122.038628 218.69724,125.871563 214.419643,129.257322 C213.660714,129.832262 212.901786,130.407203 212.142857,130.982143 C220.560065,122.677451 215.730519,120.95263 215.730519,120.95263 C217.31737,119.355574 218.973214,117.566871 220.422078,115.714286 L220.422078,115.714286 Z" id="Path" fill="#68748E"/>
                    <path d="M208.338192,126.964286 L209.732143,132.99719 C205.480594,135.97897 200.880558,138.544688 196.071429,140.625 C196.350219,140.139594 196.559311,139.654188 196.768404,139.030094 C197.674472,136.672408 197.953262,134.730783 197.953262,133.482596 C201.507835,131.610315 204.992711,129.391316 208.338192,126.964286 L208.338192,126.964286 Z" id="Path" fill="#FEFEFF"/>
                    <path d="M233.529591,128.571429 C233.198288,126.77032 232.866986,124.830665 233.132028,123.930111 C233.46333,123.029557 235.318623,119.565887 237.041395,116.517857 C237.107655,118.526786 236.908874,120.951355 236.31253,122.960283 C235.716186,124.622845 234.788539,126.493227 233.529591,128.571429 L233.529591,128.571429 Z" id="Path" fill="#68748E"/>
                    <path d="M243.482143,70.7142857 C243.482143,70.7142857 247.546235,79.968428 247.817175,94.2519954 C248.155849,108.468504 245.852863,116.314407 245.852863,116.314407 C245.852863,116.314407 250.187895,112.022631 251.136183,100.622601 C252.084472,89.1555112 248.968668,76.4143009 248.968668,76.4143009 C248.968668,76.4143009 253.03276,79.901369 254.319722,85.3331481 C255.606685,90.7649273 255.67442,94.5202314 255.67442,94.5202314 C255.67442,94.5202314 262.786582,98.1414175 262.447907,106.72497 C262.109233,115.308522 260.280391,118.125 260.280391,118.125 C260.280391,118.125 271.727585,106.590852 265.970121,88.7531572 C260.280391,70.9154627 243.482143,70.8484037 243.482143,70.8484037 L243.482143,70.7142857 Z" id="Path" fill="#A8B3CC"/>
                    <path d="M264.834528,110.089286 C266.609654,105.30305 267.750806,98.721976 265.658694,90.8113921 C262.17184,85.4933525 256.339286,82.7678571 256.339286,82.7678571 C256.339286,82.7678571 256.909862,84.0308916 257.543835,87.2217153 C258.114411,90.4125391 258.304603,93.1380344 258.304603,93.1380344 C258.304603,93.1380344 262.552224,94.7334463 264.263952,101.380996 C265.088118,104.771246 265.02472,107.895594 264.834528,110.089286 L264.834528,110.089286 Z" id="Path" fill="#68748E"/>
                    <path d="M231.428571,83.5714286 C233.326162,84.2900054 235.765921,85.2241552 236.511403,85.6553013 C236.646945,85.7990166 236.850258,85.8708743 237.053571,86.0145897 C237.053571,86.0864474 237.053571,86.158305 237.053571,86.158305 C237.053571,86.4457358 237.053571,86.7331665 237.053571,86.9487395 C236.850258,90.7571965 233.665017,92.6973539 232.648451,90.9727696 C232.106282,90.1104774 231.835198,89.1763276 231.699656,88.4577508 C231.3608,87.0924549 231.564114,85.727159 231.496343,84.361863 L231.496343,84.361863 C231.428571,84.0744323 231.428571,83.8588593 231.428571,83.5714286 L231.428571,83.5714286 Z" id="Path" fill="#68748E"/>
                    <path d="M232.770892,76.0192143 C232.183579,75.8860053 230.813183,75.6195872 229.638557,75.4197736 C228.985987,71.1570837 228.529188,67.8268573 229.964842,68.3596935 C232.444607,69.2921569 234.532831,74.9535419 234.532831,74.9535419 C234.859116,76.2190279 235.185401,77.484514 235.446429,78.75 C234.271803,77.2847004 233.162434,76.0858189 232.770892,76.0192143 L232.770892,76.0192143 Z" id="Path" fill="#FEFEFF"/>
                    <path d="M244.285714,64.2857143 C244.285714,64.2857143 241.992347,57.6140456 241.317827,56.1385804 C240.643307,54.7272659 225.803871,49.0178571 225.803871,49.0178571 C225.803871,49.0178571 225.736419,52.4819928 227.625075,53.3159514 C229.446278,54.2140606 237.405612,57.6140456 238.147584,58.1272509 C238.957008,58.6404562 240.036239,62.9385504 240.036239,62.9385504 C240.036239,62.9385504 240.373499,63.8366597 241.317827,64.0291116 C242.262155,64.2857143 244.285714,64.2857143 244.285714,64.2857143 L244.285714,64.2857143 Z" id="Path" fill="#68748E"/>
                    <path d="M221.418651,58.6607143 C219.821429,58.6607143 218.571429,62.782631 218.571429,67.9017857 C218.571429,73.0209404 219.821429,77.1428571 221.418651,77.1428571 C221.974206,77.1428571 222.390873,76.6774794 222.80754,75.8796891 C219.474206,77.7411999 220.099206,68.2341984 220.099206,68.2341984 C220.099206,68.2341984 221.904762,69.5638489 223.43254,67.6358556 C223.779762,67.2369604 223.988095,66.8380653 224.196429,66.3726876 C224.05754,62.0513232 222.876984,58.6607143 221.418651,58.6607143 L221.418651,58.6607143 Z" id="Path" fill="#9FEF00"/>
                    <path d="M225.446342,89.1964286 C225.446342,89.1964286 226.596212,91.8080357 224.769949,95.5025044 C222.943685,99.196973 220.982143,99.6428571 220.982143,99.6428571 C220.982143,99.6428571 221.117422,97.2860409 222.876046,93.4641768 C224.63467,89.7060105 225.446342,89.1964286 225.446342,89.1964286 L225.446342,89.1964286 Z" id="Path" fill="#0086FF"/>
                    <path d="M221.706613,86.7857143 C221.706613,86.7857143 222.089464,88.487395 221.170621,90.3151261 C220.251777,92.2058824 218.643801,93.2142857 218.643801,93.2142857 C218.643801,93.2142857 218.26095,91.0714286 219.256364,89.1806723 C220.098637,87.3529412 221.706613,86.7857143 221.706613,86.7857143 Z" id="Path" fill="#0086FF"/>
                    <path d="M222.589286,60.5259828 C222.28022,60.9912553 221.847527,62.0547352 221.538462,64.3146301 C221.229396,66.0427851 221.229396,67.50507 221.291209,68.701485 C220.487637,68.7679525 219.931319,68.2362125 219.931319,68.2362125 C219.931319,68.2362125 219.436813,77.7410646 222.342033,75.8799747 C221.971154,76.6775847 221.538462,77.1428571 221.105769,77.1428571 C219.684066,77.1428571 218.571429,73.0218723 218.571429,67.903875 C218.571429,62.7858777 219.684066,58.6648929 221.105769,58.6648929 C221.662088,58.5984254 222.156593,59.3295678 222.589286,60.5259828 L222.589286,60.5259828 Z" id="Path" fill="#8BBF0A"/>
                    <path d="M268.667419,124.553571 C268.667419,124.553571 270.726633,122.759772 271.413038,121.364595 C272.168083,119.902981 272.168083,118.972863 272.168083,118.972863 L268.392857,116.780442 C269.353824,114.853768 270.24615,110.867548 270.177509,107.678571 C276.698354,111.133296 276.492433,121.962528 268.667419,124.553571 L268.667419,124.553571 Z" id="Path" fill="#055CA8"/>
                    <path d="M276.47108,110.892857 C276.47108,110.892857 277.448651,113.892699 277.326455,116.619828 C277.204258,119.346957 276.348883,120.642343 276.348883,120.642343 L278.976106,122.892224 C278.853909,125.551175 277.14316,128.619195 274.821429,129.369155 C279.220499,129.641868 282.641998,120.301452 280.686855,115.938046 C279.831481,114.165412 278.365124,112.460956 276.47108,110.892857 L276.47108,110.892857 Z" id="Path" fill="#055CA8"/>
                    <path d="M283.032919,117.321429 C283.032919,117.321429 283.467459,118.62307 283.177766,121.226353 C282.81565,123.894719 282.16384,125.001114 282.16384,125.001114 L284.698655,127.344069 C283.250189,129.687024 281.077491,131.314076 278.035714,131.574404 C282.960496,132.941128 287.523162,127.409151 286.798929,122.723241 C286.36439,120.054876 282.960496,117.321429 283.032919,117.321429 L283.032919,117.321429 Z" id="Path" fill="#055CA8"/>
                    <path d="M284.464286,122.74906 C284.524366,122.396617 284.584446,121.973684 284.584446,121.550752 C284.884846,118.660714 284.464286,117.321429 284.464286,117.321429 C284.464286,117.321429 287.288051,120.281955 287.588451,123.101504 C287.708611,123.87688 287.708611,124.581767 287.588451,125.357143 L284.464286,122.74906 L284.464286,122.74906 Z" id="Path" fill="#0086FF"/>
                    <path d="M280.550488,115.650846 C281.313592,117.046523 281.452338,118.695959 280.966727,120.535714 L276.457477,117.617481 C276.596223,117.236842 276.596223,116.729323 276.596223,116.221805 C276.734969,113.684211 275.625,110.892857 275.625,110.892857 C277.914311,112.288534 279.579265,113.87453 280.550488,115.650846 L280.550488,115.650846 Z" id="Path" fill="#0086FF"/>
                    <path d="M270.565961,107.678571 C273.647306,109.446429 275.093651,113.108418 274.779228,116.517857 L270,113.171556 C270.377308,111.466837 270.565961,109.446429 270.565961,107.678571 Z" id="Path" fill="#0086FF"/>
                    <path d="M291.893838,122.142857 C291.893838,122.142857 292.831657,127.807638 289.482305,132.135785 C286.132952,136.463932 279.702195,137.036775 279.702195,137.036775 C279.702195,137.036775 279.434247,138.564356 280.03713,139.710042 C280.640014,140.855728 282.850587,141.428571 282.850587,141.428571 C282.850587,141.428571 289.147369,137.673267 294.439346,135.572843 C299.731323,133.408769 302.142857,133.281471 302.142857,133.281471 C302.142857,133.281471 300.066259,126.598303 297.587738,124.752475 C295.109217,122.842999 291.893838,122.206506 291.893838,122.142857 L291.893838,122.142857 Z" id="Path" fill="#CED8F0"/>
                    <path d="M298.487395,135 C297.983193,133.358663 297.037815,130.554711 295.336134,128.43465 C294.390756,127.272036 293.382353,126.382979 292.563025,125.904255 C292.752101,123.715805 292.5,122.142857 292.5,122.142857 C292.5,122.142857 295.52521,122.826748 297.857143,124.81003 C300.189076,126.861702 302.142857,133.974164 302.142857,133.974164 C302.142857,133.974164 301.008403,134.110942 298.487395,135 L298.487395,135 Z" id="Path" fill="#FEFEFF"/>
                    <path d="M340.987311,171.131997 C340.987311,171.131997 347.040847,168.303344 349.123785,164.060365 C351.206722,159.817387 350.230345,154.025384 349.253968,154.294779 C348.277592,154.496826 337.667629,158.605107 337.667629,158.605107 C337.667629,158.605107 336.170518,159.0092 335.910151,162.107248 C335.714876,165.137947 337.211987,168.303344 338.448731,169.852368 C339.620383,171.266694 340.987311,171.199346 340.987311,171.131997 L340.987311,171.131997 Z" id="Path" fill="#CED8F0"/>
                    <path d="M333.837099,165.535714 C333.837099,165.535714 333.70447,166.21699 334.367617,167.889212 C334.96445,169.561434 335.892857,170.180776 335.892857,170.180776 C335.892857,170.180776 334.765506,170.738183 333.70447,169.871105 C332.776063,169.004027 332.510804,167.022134 332.776063,166.464727 C332.908692,166.031188 333.837099,165.597648 333.837099,165.535714 L333.837099,165.535714 Z" id="Path" fill="#8BBF0A"/>
                    <path d="M329.277043,164.060592 C329.277043,164.060592 328.565411,165.981483 329.988675,169.823265 C331.41194,173.665046 333.482143,174.376488 333.482143,174.376488 C333.482143,174.376488 333.223367,175.585937 332.058878,175.941658 C330.894389,176.297379 328.436023,174.305343 327.53031,170.107841 C326.624596,165.981483 327.20684,164.060592 327.659697,163.562583 C328.112554,163.064574 328.694799,163.064574 328.953574,163.206862 C329.147656,163.349151 329.277043,163.491439 329.406431,163.704871 C329.471125,163.918304 329.471125,164.131736 329.471125,164.131736 L329.277043,164.060592 Z" id="Path" fill="#606C80"/>
                    <path d="M326.179614,182.410714 L324.824687,191.010734 C324.824687,191.010734 326.437696,192.365068 327.082899,193.109952 C327.728102,193.854835 327.857143,194.464286 327.857143,194.464286 C327.857143,194.464286 326.631257,193.245385 323.340719,193.380819 C320.050182,193.516252 319.017857,194.396569 319.017857,194.396569 C319.017857,194.396569 319.146898,190.198134 320.888947,186.812299 C322.566475,183.494181 326.179614,182.410714 326.179614,182.410714 L326.179614,182.410714 Z" id="Path" fill="#FFFFFF"/>
                    <path d="M312.471565,189.642857 L311.872725,195.48105 C311.872725,195.48105 312.937329,195.349854 313.80232,195.546647 C314.667311,195.74344 315,196.071429 315,196.071429 C315,196.071429 312.205414,196.59621 309.011601,197.44898 C305.817789,198.367347 304.553571,199.285714 304.553571,199.285714 C304.553571,199.285714 306.08394,195.940233 308.479299,192.988338 C310.874659,190.036443 312.538103,189.642857 312.471565,189.642857 L312.471565,189.642857 Z" id="Path" fill="#FFFFFF"/>
                    <path d="M300.535714,196.071429 L298.119978,201.769481 L290.089286,204.910714 C290.089286,204.910714 292.047991,200.965909 294.790179,198.920455 C297.532366,196.948052 300.535714,196.071429 300.535714,196.071429 L300.535714,196.071429 Z" id="Path" fill="#FFFFFF"/>
                    <path d="M323.930955,209.691312 C327.082828,201.565141 319.006155,198.246954 314.606666,201.091114 L300.42324,210.300775 C300.42324,210.300775 298.125,211.587419 298.125,214.837888 C298.125,218.088356 298.45332,219.375 298.45332,219.375 L320.516427,204.206147 C320.516427,204.206147 322.355019,204.341583 323.274315,206.169971 C324.193611,207.99836 323.930955,209.691312 323.930955,209.691312 L323.930955,209.691312 Z" id="Path" fill="#CED8F0"/>
                    <path d="M295.713932,212.946429 C295.713932,212.946429 295.099215,213.66887 294.962612,214.522665 C294.826008,215.310783 294.89431,218.069196 294.89431,218.069196 C294.89431,218.069196 285.058851,220.499227 284.239229,221.221669 C283.351306,221.944111 282.121873,226.607143 282.121873,226.607143 L282.053571,219.054344 C282.053571,219.054344 282.463382,217.215402 284.239229,216.49296 C285.946774,215.836195 295.782233,212.946429 295.713932,212.946429 L295.713932,212.946429 Z" id="Path" fill="#FFFFFF"/>
                    <path d="M294.910714,223.394664 C294.910714,223.394664 294.718449,224.287019 293.180324,224.703452 C291.706288,225.119884 284.464286,226.607143 284.464286,226.607143 C284.464286,226.607143 285.489702,225.238865 286.643295,225.000903 C287.860977,224.762942 294.910714,223.335174 294.910714,223.394664 L294.910714,223.394664 Z" id="Path" fill="#D7CC75"/>
                    <path d="M277.232143,219.693101 L277.232143,221.785714 C274.978829,220.961352 269.838457,218.361438 267.65556,219.883339 C266.388071,220.771114 266.247239,221.278414 265.472662,221.468652 C264.698085,221.595477 263.571429,221.215002 263.571429,221.215002 C265.613494,219.439451 266.951399,217.537076 270.049705,217.790726 C271.880523,217.917551 277.161727,219.693101 277.232143,219.693101 L277.232143,219.693101 Z" id="Path" fill="#FFFFFF"/>
                    <path d="M277.232143,233.839286 C277.232143,233.839286 277.232143,232.70654 276.208123,231.573795 C275.248104,230.50398 262.767857,223.392857 262.767857,223.392857 C262.767857,223.392857 263.279867,225.658348 265.327908,226.854023 C267.375948,228.049699 277.232143,233.776355 277.232143,233.839286 L277.232143,233.839286 Z" id="Path" fill="#D7CC75"/>
                    <path d="M261.160714,229.821429 C261.160714,229.821429 261.02466,228.51834 260.140306,227.606178 C259.187925,226.694015 248.303571,220.178571 248.303571,220.178571 C248.303571,220.178571 249.187925,222.263514 250.548469,223.305985 C251.840986,224.41361 261.160714,229.821429 261.160714,229.821429 Z" id="Path" fill="#D7CC75"/>
                    <path d="M261.964286,216.586937 L260.870061,217.767857 C260.870061,217.767857 256.151216,215.274802 254.3731,215.143589 C252.594985,215.012376 249.107143,215.799656 249.107143,215.799656 C249.107143,215.799656 250.338146,214.028275 253.210486,213.765848 C256.014438,213.503422 261.964286,216.586937 261.964286,216.586937 L261.964286,216.586937 Z" id="Path" fill="#FFFFFF"/>
                    <path d="M326.921024,199.279035 C326.921024,199.279035 325.993189,198.10053 323.872423,197.615263 C321.751657,197.129996 320.625,197.476615 320.625,197.476615 C320.625,197.476615 321.552835,195.882167 324.071244,196.090138 C326.52338,196.228786 326.987297,198.169854 327.053571,198.516473 C327.053571,198.863092 326.921024,199.348359 326.921024,199.279035 L326.921024,199.279035 Z" id="Path" fill="#8BBF0A"/>
                    <path d="M310.178571,200.901879 C310.178571,200.901879 307.709059,200.757529 306.199913,201.623629 C304.690767,202.417554 304.553571,204.07758 304.553571,204.07758 C304.553571,204.07758 306.405706,204.36628 308.120645,203.139305 C309.766986,201.984504 310.178571,200.974054 310.178571,200.901879 L310.178571,200.901879 Z" id="Path" fill="#8BBF0A"/>
                    <path d="M295.708307,206.082286 C295.708307,206.082286 294.570973,205.372408 292.497011,205.924536 C290.423048,206.476663 289.285714,208.448546 289.285714,208.448546 C289.285714,208.448546 290.556852,209.473925 292.965325,208.527422 C295.306895,207.580918 295.775209,206.082286 295.708307,206.082286 L295.708307,206.082286 Z" id="Path" fill="#8BBF0A"/>
                    <path d="M280.446429,211.640846 C280.446429,211.640846 279.883929,211.215599 277.821429,211.375066 C275.758929,211.58769 274.821429,212.544494 274.821429,212.544494 C274.821429,212.544494 275.883929,213.076052 277.633929,212.916585 C279.383929,212.757118 280.446429,211.640846 280.446429,211.640846 Z" id="Path" fill="#8BBF0A"/>
                    <path d="M323.035714,193.516252 L324.42542,183.697331 C325.74895,182.749298 326.940126,182.410714 326.940126,182.410714 L325.55042,191.010734 C325.55042,191.010734 327.204832,192.365068 327.866597,193.109952 C328.528361,193.854835 328.660714,194.464286 328.660714,194.464286 C328.660714,194.464286 327.403361,193.245385 324.028361,193.380819 C323.697479,193.380819 323.432773,193.448535 323.035714,193.516252 L323.035714,193.516252 Z" id="Path" fill="#606C80"/>
                    <path d="M312.598315,188.035714 L312.029494,194.646609 C312.029494,194.646609 313.04073,194.498049 313.86236,194.720888 C314.683989,194.943727 315,195.315126 315,195.315126 C315,195.315126 312.345506,195.909364 309.375,196.875 L310.51264,189.818427 C311.839888,188.407113 312.724719,188.184274 312.724719,188.184274 L312.598315,188.035714 Z" id="Path" fill="#606C80"/>
                    <path d="M300.535714,196.071429 L298.087185,201.349624 L294.910714,202.5 C295.572479,201.146617 296.49895,198.981203 297.359244,197.221805 C299.079832,196.409774 300.535714,196.071429 300.535714,196.071429 L300.535714,196.071429 Z" id="Path" fill="#606C80"/>
                    <path d="M298.928571,216.482038 L322.032941,200.892857 C324.731742,202.169557 326.509001,205.193321 324.731742,209.762564 C324.731742,209.762564 324.929215,208.082695 324.073498,206.268437 C323.151956,204.454179 321.308872,204.319789 321.308872,204.319789 L299.191869,219.371412 C299.126045,219.438607 298.928571,218.565075 298.928571,216.482038 L298.928571,216.482038 Z" id="Path" fill="#606C80"/>
                    <path d="M294.910714,216.160714 C294.910714,217.167599 294.910714,218.426205 294.910714,218.426205 C294.910714,218.426205 285.06269,220.754626 284.242021,221.446859 C283.352964,222.139092 282.12196,226.607143 282.12196,226.607143 L282.053571,220.628765 C282.395517,220.125323 282.805851,219.55895 283.216185,219.370159 C284.173632,218.929647 291.62804,217.041738 294.910714,216.160714 L294.910714,216.160714 Z" id="Path" fill="#606C80"/>
                    <path d="M286.643295,225 C287.796889,224.761905 294.910714,223.392857 294.910714,223.392857 C294.910714,223.392857 294.718449,224.285714 293.180324,224.702381 C291.706288,225.119048 284.464286,226.607143 284.464286,226.607143 C284.464286,226.607143 285.425613,225.178571 286.643295,225 L286.643295,225 Z" id="Path" fill="#606C80"/>
                    <path d="M262.767857,223.392857 C262.767857,223.392857 275.248104,230.50398 276.208123,231.573795 C277.168142,232.64361 277.232143,233.839286 277.232143,233.839286 C277.232143,233.839286 267.375948,228.049699 265.327908,226.916954 C263.215866,225.658348 262.767857,223.455787 262.767857,223.392857 L262.767857,223.392857 Z" id="Path" fill="#606C80"/>
                    <path d="M248.303571,220.178571 C248.303571,220.178571 259.119898,226.628861 260.140306,227.606178 C261.092687,228.51834 261.160714,229.821429 261.160714,229.821429 C261.160714,229.821429 251.840986,224.478764 250.548469,223.371139 C249.255952,222.263514 248.303571,220.178571 248.303571,220.178571 Z" id="Path" fill="#606C80"/>
                    <path d="M318.214286,200.902376 L298.125,214.553571 C298.317549,211.771574 300.371406,210.671715 300.371406,210.671715 L314.234938,201.87284 C315.390233,201.096469 316.802259,200.837678 318.214286,200.902376 L318.214286,200.902376 Z" id="Path" fill="#FFFFFF"/>
                    <path d="M339.807503,165.717145 C339.807503,165.717145 346.376147,163.653465 348.366645,162.402751 C349.096494,161.902465 349.759993,161.339643 350.357143,160.714286 C350.224443,161.965 349.826343,163.340787 349.229194,164.591501 C347.105996,168.531253 340.935452,171.157754 340.935452,171.157754 C340.935452,171.157754 339.608453,171.282825 338.347805,169.907039 C337.418906,168.843932 336.357307,167.030395 335.892857,164.90418 C337.684305,165.904752 339.807503,165.717145 339.807503,165.717145 Z" id="Path" fill="#606C80"/>
                    <path d="M350.094156,156.095849 C349.502435,156.467219 341.152597,159.512457 335.892857,161.517857 C336.221591,158.621168 337.668019,158.249797 337.668019,158.249797 C337.668019,158.249797 348.38474,153.719078 349.370942,153.496256 C349.765422,153.347708 350.159903,154.387545 350.357143,155.873027 C350.291396,155.947301 350.159903,155.947301 350.094156,156.095849 L350.094156,156.095849 Z" id="Path" fill="#FEFEFF"/>
                    <path d="M80.7237791,199.662901 L57.0535714,164.24016 L62.4179244,158.598761 L63.8260671,157.090015 L64.6307201,156.762026 L73.1466305,153.482143 L90.2455057,153.482143 L98.4931984,157.483601 L99.230797,157.811589 L100.907157,159.320335 L106.875,164.830539 L83.6741732,199.531706 L82.1989762,201.696429 L80.7237791,199.662901 Z M96.2133484,161.091472 L91.1842674,162.928207 L92.9947366,169.947157 L102.91879,164.764942 L98.1579264,160.369898 L96.2133484,161.091472 L96.2133484,161.091472 Z M88.6361998,163.452988 L74.4206643,163.452988 L72.4090319,169.684767 L90.5137233,170.537536 L88.6361998,163.452988 L88.6361998,163.452988 Z M101.242429,168.569606 L93.1958998,172.767857 L87.0268939,189.757653 L101.242429,168.569606 L101.242429,168.569606 Z M90.3796145,173.095845 L72.6772496,172.308673 L82.1989762,195.792638 L90.3796145,173.095845 L90.3796145,173.095845 Z M89.3737983,160.829082 L95.1404778,158.664359 L89.642016,155.974854 L73.6160113,155.974854 L67.9163863,158.139577 L73.6830658,160.697886 L73.6830658,160.697886 L89.3737983,160.829082 L89.3737983,160.829082 Z M60.8086185,163.97777 L69.8609642,168.963192 L71.8725966,162.797012 L64.9659921,159.648324 L60.8086185,163.97777 L60.8086185,163.97777 Z M69.5927466,171.718294 L62.7531965,167.91363 L76.164079,187.986516 L69.5927466,171.718294 L69.5927466,171.718294 Z" id="Shape" fill="#FFFFFF" fill-rule="nonzero"/>
                    <path d="M28.9285714,157.000922 L34.7544643,159.107143 L49.6875,151.274635 L59.3303571,154.960521 L62.8794643,152.591023 L52.2321429,147.720387 L68.3705357,150.550621 L74.7321429,147.654568 C74.7321429,147.654568 65.2901786,141.862461 58.7276786,140.216976 C52.0982143,138.571491 49.4866071,139.098046 49.4866071,139.098046 C49.4866071,139.098046 40.4464286,142.718113 39.6428571,143.573765 C38.90625,144.495237 28.9285714,157.066742 28.9285714,157.000922 L28.9285714,157.000922 Z" id="Path" fill="#606C80"/>
                    <path d="M46.3319472,147.857143 C45.3412427,147.857143 35.6323386,154.362703 31.3392857,157.240163 L34.5095401,158.303571 L49.2380137,150.922263 L58.7487769,154.425257 L60.2678571,153.486955 C56.635274,151.860565 47.3226517,147.857143 46.3319472,147.857143 L46.3319472,147.857143 Z" id="Path" fill="#FFFFFF"/>
                    <path d="M294.24283,142.043355 C294.24283,142.043355 302.994673,141.784813 305.233516,141.914084 C307.540204,142.043355 310.253953,147.343471 310.253953,147.343471 C310.253953,147.343471 305.708423,147.537377 302.316236,148.894724 C298.991892,150.252071 298.58483,150.639884 298.58483,150.639884 C298.58483,150.639884 309.10061,150.1228 312.289266,150.769155 C315.477921,151.415511 324.026233,159.107143 324.026233,159.107143 L330.267857,156.327814 C330.267857,156.327814 319.752077,144.370235 318.937952,144.047057 C318.191671,143.723879 309.982578,139.522568 307.811579,139.070119 C305.708423,138.553034 294.107143,142.043355 294.107143,142.043355 L294.24283,142.043355 Z" id="Path" fill="#68748E"/>
                    <path d="M306.160714,148.660714 C305.223214,148.870951 304.285714,149.221346 303.415179,149.641819 C300.133929,151.113476 299.732143,151.533949 299.732143,151.533949 C299.732143,151.533949 310.111607,150.973318 313.258929,151.674107 C316.40625,152.374896 324.84375,160.714286 324.84375,160.714286 L327.857143,159.242629 C324.709821,156.439473 318.75,151.253634 316.473214,150.20245 C313.258929,148.800872 306.09375,148.730793 306.160714,148.660714 L306.160714,148.660714 Z" id="Path" fill="#FFFFFF"/>
                    <path d="M312.491197,166.476329 L311.785714,184.017857 C311.785714,184.017857 314.80005,182.236296 319.8667,180.591777 C324.93335,178.947259 325.446429,178.810216 325.446429,178.810216 C325.446429,178.810216 324.163732,177.439784 321.213531,177.850914 C318.199195,178.262043 314.479376,180.112126 314.479376,180.112126 C314.479376,180.112126 314.671781,171.546927 314.735915,169.422757 C314.80005,167.230066 312.491197,166.339286 312.491197,166.339286 L312.491197,166.476329 Z" id="Path" fill="#FFFFFF"/>
                    <path d="M255.433853,74.3642427 C258.014336,75.8745697 260.662726,78.0771299 262.767857,81.1607143 C262.767857,81.1607143 260.187374,79.0210843 256.180835,77.0702453 C255.230131,76.5668029 254.143612,76.1262909 253.057093,75.6857788 C250.544517,74.7418244 247.624497,73.9866609 244.636569,73.8608003 C244.297032,72.9797762 244.09331,72.2246127 243.889588,71.7211704 C243.617958,71.0289372 243.482143,70.7142857 243.482143,70.7142857 C243.482143,70.7142857 249.322183,70.777216 255.433853,74.3642427 L255.433853,74.3642427 Z" id="Path" fill="#FFFFFF"/>
                    <path d="M156.849065,82.7678571 C156.450748,85.6305804 156.849065,88.4296875 157.844857,90.8470982 L157.844857,83.5948661 L156.849065,82.7678571 Z M158.840648,92.7555804 C159.238965,93.3917411 159.703668,93.9642857 160.168371,94.5368304 L160.168371,85.3761161 L158.840648,84.3582589 L158.840648,92.7555804 L158.840648,92.7555804 Z M161.164163,95.4910714 C161.562479,95.8091518 162.027182,96.1908482 162.491885,96.4453125 L162.491885,87.1573661 L161.164163,86.1395089 L161.164163,95.4910714 L161.164163,95.4910714 Z M163.487677,97.0178571 C163.885993,97.2087054 164.350696,97.3995536 164.815399,97.5267857 L164.815399,89.0022321 L163.487677,87.984375 L163.487677,97.0178571 L163.487677,97.0178571 Z M165.811191,97.78125 C166.275894,97.9084821 166.67421,97.9084821 167.138913,97.9720982 L167.138913,90.7834821 L165.811191,89.765625 L165.811191,97.78125 L165.811191,97.78125 Z M168.068319,98.0357143 C168.533022,98.0357143 168.931338,97.9720982 169.396041,97.9084821 L169.396041,92.5647321 L168.068319,91.546875 L168.068319,98.0357143 Z M170.391833,97.78125 C170.856536,97.6540179 171.254852,97.5904018 171.719555,97.4631696 L171.719555,94.4095982 L170.391833,93.3917411 L170.391833,97.78125 L170.391833,97.78125 Z M172.715347,97.1450893 C173.246436,96.9542411 173.843911,96.6997768 174.375,96.4453125 L172.715347,95.1729911 L172.715347,97.1450893 Z" id="Shape" fill="#9FEF00"/>
                    <path d="M201.543217,82.7678571 C201.943035,85.6305804 201.543217,88.4296875 200.543672,90.8470982 L200.543672,83.5948661 L201.543217,82.7678571 Z M199.610763,92.7555804 C199.210945,93.3917411 198.74449,93.9642857 198.278036,94.5368304 L198.278036,85.3761161 L199.610763,84.3582589 L199.610763,92.7555804 L199.610763,92.7555804 Z M197.278491,95.4910714 C196.878672,95.8091518 196.412218,96.1908482 195.945764,96.4453125 L195.945764,87.1573661 L197.278491,86.1395089 L197.278491,95.4910714 L197.278491,95.4910714 Z M194.946218,97.0178571 C194.5464,97.2087054 194.079946,97.3995536 193.613491,97.5267857 L193.613491,89.0022321 L194.946218,87.984375 L194.946218,97.0178571 L194.946218,97.0178571 Z M192.613946,97.78125 C192.147492,97.9084821 191.747674,97.9084821 191.281219,97.9720982 L191.281219,90.7834821 L192.613946,89.765625 L192.613946,97.78125 L192.613946,97.78125 Z M190.281674,98.0357143 C189.81522,98.0357143 189.415401,97.9720982 188.948947,97.9084821 L188.948947,92.5647321 L190.281674,91.546875 L190.281674,98.0357143 Z M187.949402,97.78125 C187.482947,97.6540179 187.083129,97.5904018 186.616675,97.4631696 L186.616675,94.4095982 L187.949402,93.3917411 L187.949402,97.78125 L187.949402,97.78125 Z M185.683766,97.1450893 C185.150675,96.9542411 184.550948,96.6997768 184.017857,96.4453125 L185.683766,95.1729911 L185.683766,97.1450893 Z" id="Shape" fill="#9FEF00"/>
                </g>
            </g>
        </g>
    </g>
</svg>